<svg width="61" height="53" viewBox="0 0 61 53" fill="none" xmlns="http://www.w3.org/2000/svg">
<rect x="1.23047" y="1.22949" width="58" height="50.5407" rx="11" fill="#EFF5F9"/>
<rect x="1.23047" y="1.22949" width="58" height="50.5407" rx="11" stroke="#203864" stroke-width="2"/>
<g clip-path="url(#clip0_6224_16436)">
<path d="M29.557 24.4807C31.7874 24.4807 33.5955 22.6727 33.5955 20.4423C33.5955 18.2119 31.7874 16.4038 29.557 16.4038C27.3266 16.4038 25.5186 18.2119 25.5186 20.4423C25.5186 22.6727 27.3266 24.4807 29.557 24.4807Z" stroke="#0075C4" stroke-width="1.34615" stroke-linecap="round"/>
<path d="M36.961 35.2502V32.5579C36.961 28.3875 33.6024 24.481 29.5572 24.481C25.5106 24.481 22.1533 28.3875 22.1533 32.5579V35.2502" stroke="#0075C4" stroke-width="1.34615" stroke-linecap="round"/>
<path fill-rule="evenodd" clip-rule="evenodd" d="M30.2302 41.9805C38.7797 41.9805 45.711 35.0492 45.711 26.4998C45.711 17.9504 38.7797 11.019 30.2302 11.019C21.6808 11.019 14.7495 17.9504 14.7495 26.4998C14.7495 35.0492 21.6808 41.9805 30.2302 41.9805ZM30.2302 43.3267C39.5241 43.3267 47.0572 35.7936 47.0572 26.4998C47.0572 17.2059 39.5241 9.67285 30.2302 9.67285C20.9364 9.67285 13.4033 17.2059 13.4033 26.4998C13.4033 35.7936 20.9364 43.3267 30.2302 43.3267Z" fill="#0075C4"/>
</g>
<defs>
<clipPath id="clip0_6224_16436">
<rect width="35" height="35" fill="white" transform="translate(12.7305 9)"/>
</clipPath>
</defs>
</svg>
