<svg width="61" height="53" viewBox="0 0 61 53" fill="none" xmlns="http://www.w3.org/2000/svg">
<rect x="1.23047" y="1.22949" width="58" height="50.5407" rx="11" fill="#EFF5F9"/>
<rect x="1.23047" y="1.22949" width="58" height="50.5407" rx="11" stroke="#203864" stroke-width="2"/>
<path d="M21.2725 37.25V35.4583C21.2725 33.0824 22.2163 30.8038 23.8963 29.1238C25.5763 27.4438 27.8549 26.5 30.2308 26.5M30.2308 26.5C32.6067 26.5 34.8853 27.4438 36.5653 29.1238C38.2453 30.8038 39.1891 33.0824 39.1891 35.4583V37.25M30.2308 26.5C31.6563 26.5 33.0235 25.9337 34.0315 24.9257C35.0395 23.9177 35.6058 22.5505 35.6058 21.125C35.6058 19.6995 35.0395 18.3323 34.0315 17.3243C33.0235 16.3163 31.6563 15.75 30.2308 15.75C28.8053 15.75 27.4381 16.3163 26.4301 17.3243C25.4221 18.3323 24.8558 19.6995 24.8558 21.125C24.8558 22.5505 25.4221 23.9177 26.4301 24.9257C27.4381 25.9337 28.8053 26.5 30.2308 26.5ZM10.5225 37.25V35.4583C10.5225 34.0328 11.0888 32.6656 12.0968 31.6576C13.1048 30.6496 14.4719 30.0833 15.8975 30.0833M15.8975 30.0833C16.8478 30.0833 17.7593 29.7058 18.4313 29.0338C19.1033 28.3618 19.4808 27.4504 19.4808 26.5C19.4808 25.5496 19.1033 24.6382 18.4313 23.9662C17.7593 23.2942 16.8478 22.9167 15.8975 22.9167C14.9471 22.9167 14.0357 23.2942 13.3637 23.9662C12.6917 24.6382 12.3141 25.5496 12.3141 26.5C12.3141 27.4504 12.6917 28.3618 13.3637 29.0338C14.0357 29.7058 14.9471 30.0833 15.8975 30.0833ZM49.9391 37.25V35.4583C49.9391 34.0328 49.3728 32.6656 48.3648 31.6576C47.3568 30.6496 45.9897 30.0833 44.5641 30.0833M44.5641 30.0833C45.5145 30.0833 46.4259 29.7058 47.0979 29.0338C47.7699 28.3618 48.1475 27.4504 48.1475 26.5C48.1475 25.5496 47.7699 24.6382 47.0979 23.9662C46.4259 23.2942 45.5145 22.9167 44.5641 22.9167C43.6138 22.9167 42.7023 23.2942 42.0303 23.9662C41.3583 24.6382 40.9808 25.5496 40.9808 26.5C40.9808 27.4504 41.3583 28.3618 42.0303 29.0338C42.7023 29.7058 43.6138 30.0833 44.5641 30.0833Z" stroke="#0075C4" stroke-width="1.5" stroke-linecap="round" stroke-linejoin="round"/>
</svg>
