<svg width="61" height="53" viewBox="0 0 61 53" fill="none" xmlns="http://www.w3.org/2000/svg">
<rect x="1.23047" y="1.22974" width="58" height="50.5407" rx="11" fill="#EFF5F9"/>
<rect x="1.23047" y="1.22974" width="58" height="50.5407" rx="11" stroke="#203864" stroke-width="2"/>
<path d="M30.2305 13.9062C27.7397 13.9062 25.3048 14.6449 23.2338 16.0287C21.1627 17.4125 19.5486 19.3794 18.5954 21.6806C17.6422 23.9818 17.3928 26.514 17.8787 28.9569C18.3646 31.3999 19.5641 33.6439 21.3253 35.4051C23.0866 37.1664 25.3306 38.3658 27.7736 38.8518C30.2165 39.3377 32.7487 39.0883 35.0499 38.1351C37.3511 37.1819 39.318 35.5677 40.7018 33.4967C42.0856 31.4257 42.8242 28.9908 42.8242 26.5C42.8207 23.161 41.4927 19.9598 39.1317 17.5988C36.7707 15.2377 33.5695 13.9098 30.2305 13.9062ZM27.0372 31.3437H33.4237C32.7734 33.5646 31.6836 35.5663 30.2305 37.1429C28.7773 35.5663 27.6875 33.5646 27.0372 31.3437ZM26.5977 29.4062C26.2764 27.4821 26.2764 25.5179 26.5977 23.5937H33.8633C34.1846 25.5179 34.1846 27.4821 33.8633 29.4062H26.5977ZM19.5742 26.5C19.5734 25.5172 19.7091 24.5391 19.9775 23.5937H24.6347C24.3457 25.5205 24.3457 27.4795 24.6347 29.4062H19.9775C19.7091 28.4609 19.5734 27.4827 19.5742 26.5ZM33.4237 21.6562H27.0372C27.6875 19.4354 28.7773 17.4337 30.2305 15.8571C31.6836 17.4337 32.7734 19.4354 33.4237 21.6562ZM35.8262 23.5937H40.4835C41.0211 25.4939 41.0211 27.5061 40.4835 29.4062H35.8262C36.1152 27.4795 36.1152 25.5205 35.8262 23.5937ZM39.7206 21.6562H35.4302C34.9359 19.7109 34.1056 17.8668 32.9769 16.207C34.4189 16.5946 35.7639 17.2796 36.9253 18.2181C38.0868 19.1566 39.0389 20.3277 39.7206 21.6562ZM27.4841 16.207C26.3553 17.8668 25.5251 19.7109 25.0307 21.6562H20.7404C21.422 20.3277 22.3742 19.1566 23.5356 18.2181C24.697 17.2796 26.042 16.5946 27.4841 16.207ZM20.7404 31.3437H25.0307C25.5251 33.2891 26.3553 35.1332 27.4841 36.793C26.042 36.4054 24.697 35.7204 23.5356 34.7819C22.3742 33.8434 21.422 32.6723 20.7404 31.3437ZM32.9769 36.793C34.1056 35.1332 34.9359 33.2891 35.4302 31.3437H39.7206C39.0389 32.6723 38.0868 33.8434 36.9253 34.7819C35.7639 35.7204 34.4189 36.4054 32.9769 36.793Z" fill="#0075C4"/>
</svg>
