<svg width="61" height="53" viewBox="0 0 61 53" fill="none" xmlns="http://www.w3.org/2000/svg">
<rect x="1.23047" y="1.22974" width="58" height="50.5407" rx="11" fill="#EFF5F9"/>
<rect x="1.23047" y="1.22974" width="58" height="50.5407" rx="11" stroke="#203864" stroke-width="2"/>
<path d="M33.792 40.0999H41.5635V32.3285H38.6492V28.4428C38.6487 27.9276 38.4438 27.4338 38.0796 27.0695C37.7153 26.7053 37.2215 26.5004 36.7063 26.4999H30.8778V20.6713H33.792V12.8999L26.0206 12.8999V20.6713H28.9349V26.4999L23.1063 26.4999C22.5912 26.5004 22.0973 26.7053 21.7331 27.0695C21.3688 27.4338 21.164 27.9276 21.1635 28.4428V32.3285H18.2492V40.0999H26.0206L26.0206 32.3285H23.1063V28.4428L36.7063 28.4428V32.3285H33.792L33.792 40.0999ZM27.9635 18.7285V14.8428H31.8492V18.7285L27.9635 18.7285ZM24.0778 34.2713V38.157H20.192V34.2713H24.0778ZM39.6206 34.2713V38.157H35.7349L35.7349 34.2713H39.6206Z" fill="#0075C4"/>
</svg>
