<svg width="61" height="53" viewBox="0 0 61 53" fill="none" xmlns="http://www.w3.org/2000/svg">
<rect x="1.23047" y="1.22949" width="58" height="50.5407" rx="11" fill="#EFF5F9"/>
<rect x="1.23047" y="1.22949" width="58" height="50.5407" rx="11" stroke="#203864" stroke-width="2"/>
<path d="M30.2305 27.6875V37.1875H18.3555V27.6875H30.2305ZM30.2305 25.3125H18.3555C17.7256 25.3125 17.1215 25.5627 16.6761 26.0081C16.2307 26.4535 15.9805 27.0576 15.9805 27.6875V37.1875C15.9805 37.8174 16.2307 38.4215 16.6761 38.8669C17.1215 39.3123 17.7256 39.5625 18.3555 39.5625H30.2305C30.8604 39.5625 31.4644 39.3123 31.9098 38.8669C32.3552 38.4215 32.6055 37.8174 32.6055 37.1875V27.6875C32.6055 27.0576 32.3552 26.4535 31.9098 26.0081C31.4644 25.5627 30.8604 25.3125 30.2305 25.3125ZM43.293 14.625V20.5625H31.418V14.625H43.293ZM43.293 12.25H31.418C30.7881 12.25 30.184 12.5002 29.7386 12.9456C29.2932 13.391 29.043 13.9951 29.043 14.625V20.5625C29.043 21.1924 29.2932 21.7965 29.7386 22.2419C30.184 22.6873 30.7881 22.9375 31.418 22.9375H43.293C43.9229 22.9375 44.5269 22.6873 44.9723 22.2419C45.4177 21.7965 45.668 21.1924 45.668 20.5625V14.625C45.668 13.9951 45.4177 13.391 44.9723 12.9456C44.5269 12.5002 43.9229 12.25 43.293 12.25ZM43.293 27.6875V33.625H37.3555V27.6875H43.293ZM43.293 25.3125H37.3555C36.7256 25.3125 36.1215 25.5627 35.6761 26.0081C35.2307 26.4535 34.9805 27.0576 34.9805 27.6875V33.625C34.9805 34.2549 35.2307 34.859 35.6761 35.3044C36.1215 35.7498 36.7256 36 37.3555 36H43.293C43.9229 36 44.5269 35.7498 44.9723 35.3044C45.4177 34.859 45.668 34.2549 45.668 33.625V27.6875C45.668 27.0576 45.4177 26.4535 44.9723 26.0081C44.5269 25.5627 43.9229 25.3125 43.293 25.3125ZM24.293 14.625V20.5625H18.3555V14.625H24.293ZM24.293 12.25H18.3555C17.7256 12.25 17.1215 12.5002 16.6761 12.9456C16.2307 13.391 15.9805 13.9951 15.9805 14.625V20.5625C15.9805 21.1924 16.2307 21.7965 16.6761 22.2419C17.1215 22.6873 17.7256 22.9375 18.3555 22.9375H24.293C24.9229 22.9375 25.5269 22.6873 25.9723 22.2419C26.4177 21.7965 26.668 21.1924 26.668 20.5625V14.625C26.668 13.9951 26.4177 13.391 25.9723 12.9456C25.5269 12.5002 24.9229 12.25 24.293 12.25Z" fill="#0075C4"/>
</svg>
