<svg width="63" height="57" viewBox="0 0 63 57" fill="none" xmlns="http://www.w3.org/2000/svg">
<rect x="0.5" y="0.691895" width="61.0065" height="55.5816" rx="11.5" fill="#EFF5F9"/>
<rect x="0.5" y="0.691895" width="61.0065" height="55.5816" rx="11.5" stroke="#0075C4"/>
<path d="M17.7059 36.1223L19.9627 39.1395M19.9809 36.4832H18.4395C18.3181 36.4835 18.1978 36.4598 18.0856 36.4135C17.9734 36.3671 17.8714 36.2991 17.7856 36.2132C17.6997 36.1274 17.6317 36.0254 17.5854 35.9132C17.539 35.801 17.5153 35.6807 17.5156 35.5593V22.6152C17.5154 22.4939 17.5392 22.3738 17.5855 22.2618C17.6319 22.1497 17.6999 22.0479 17.7856 21.9622C17.8714 21.8765 17.9732 21.8086 18.0853 21.7624C18.1974 21.7161 18.3175 21.6925 18.4388 21.6928H19.9809M21.3802 15.5452C21.0091 15.5452 20.6532 15.6926 20.3908 15.955C20.1284 16.2174 19.9809 16.5733 19.9809 16.9444V21.6935H31.4974L36.2355 27.3963V35.5593C36.2358 35.6805 36.2122 35.8006 36.166 35.9126C36.1198 36.0246 36.0519 36.1264 35.9663 36.2122C35.8807 36.298 35.779 36.366 35.667 36.4124C35.5551 36.4587 35.435 36.4826 35.3139 36.4825H19.9802V40.0211C19.9802 40.3922 20.1276 40.7481 20.39 41.0105C20.6525 41.273 21.0084 41.4204 21.3795 41.4204H43.0948C43.4659 41.4204 43.8218 41.273 44.0842 41.0105C44.3466 40.7481 44.4941 40.3922 44.4941 40.0211V16.9437C44.4939 16.5727 44.3464 16.217 44.084 15.9547C43.8216 15.6925 43.4658 15.5452 43.0948 15.5452H21.3802Z" stroke="#0075C4" stroke-width="1.5" stroke-linecap="round" stroke-linejoin="round"/>
<path d="M29.0117 28.2522C29.0119 27.8512 29.1198 27.4575 29.3241 27.1123C29.5283 26.7671 29.8215 26.4831 30.1729 26.2899C30.5244 26.0966 30.9213 26.0013 31.3222 26.0138C31.7231 26.0263 32.1133 26.1461 32.452 26.3608C32.7908 26.5756 33.0657 26.8773 33.2481 27.2345C33.4305 27.5917 33.5137 27.9913 33.4889 28.3917C33.4642 28.792 33.3324 29.1783 33.1074 29.5104C32.8825 29.8424 32.5725 30.108 32.2098 30.2793L33.2919 34.3619H29.2961L30.3315 30.2954C29.9382 30.118 29.6045 29.8308 29.3704 29.4684C29.1363 29.106 29.0117 28.6837 29.0117 28.2522Z" stroke="#0075C4" stroke-width="0.729167" stroke-linecap="round" stroke-linejoin="round"/>
</svg>
