<svg width="341" height="132" viewBox="0 0 341 132" fill="none" xmlns="http://www.w3.org/2000/svg">
<g filter="url(#filter0_d_6207_60911)">
<rect x="5" y="4" width="331" height="122" rx="5" fill="white"/>
</g>
<path d="M51.5 48.5C51.5 39.1112 59.1112 31.5 68.5 31.5H272.5C281.889 31.5 289.5 39.1112 289.5 48.5C289.5 57.8888 281.889 65.5 272.5 65.5H68.5C59.1112 65.5 51.5 57.8888 51.5 48.5Z" fill="white"/>
<path d="M51 48.5C51 38.835 58.835 31 68.5 31H86V66H68.5C58.835 66 51 58.165 51 48.5Z" fill="#29C584"/>
<path d="M64.25 48.5L68.75 52.25L74.75 44.75M69.5 59C68.1211 59 66.7557 58.7284 65.4818 58.2007C64.2079 57.6731 63.0504 56.8996 62.0754 55.9246C61.1004 54.9496 60.3269 53.7921 59.7993 52.5182C59.2716 51.2443 59 49.8789 59 48.5C59 47.1211 59.2716 45.7557 59.7993 44.4818C60.3269 43.2079 61.1004 42.0504 62.0754 41.0754C63.0504 40.1004 64.2079 39.3269 65.4818 38.7993C66.7557 38.2716 68.1211 38 69.5 38C72.2848 38 74.9555 39.1062 76.9246 41.0754C78.8938 43.0445 80 45.7152 80 48.5C80 51.2848 78.8938 53.9555 76.9246 55.9246C74.9555 57.8938 72.2848 59 69.5 59Z" stroke="white" stroke-width="1.5"/>
<path d="M98.352 53H97.344V43.088H98.352V53ZM101.081 46.448C101.1 46.6253 101.109 46.8027 101.109 46.98C101.119 47.148 101.123 47.3207 101.123 47.498H101.151C101.254 47.3207 101.385 47.1573 101.543 47.008C101.702 46.8587 101.879 46.7327 102.075 46.63C102.271 46.518 102.477 46.434 102.691 46.378C102.915 46.3127 103.135 46.28 103.349 46.28C104.189 46.28 104.81 46.504 105.211 46.952C105.613 47.3907 105.813 48.0207 105.813 48.842V53H104.889V49.374C104.889 48.646 104.763 48.0907 104.511 47.708C104.259 47.316 103.793 47.12 103.111 47.12C103.065 47.12 102.934 47.1387 102.719 47.176C102.505 47.2133 102.276 47.316 102.033 47.484C101.8 47.652 101.59 47.904 101.403 48.24C101.217 48.576 101.123 49.0427 101.123 49.64V53H100.199V47.89C100.199 47.7127 100.19 47.4887 100.171 47.218C100.162 46.9473 100.148 46.6907 100.129 46.448H101.081ZM110.601 50.102H107.003V49.178H110.601V50.102ZM117.255 49.724C117.255 49.36 117.194 49.0193 117.073 48.702C116.961 48.3847 116.797 48.1093 116.583 47.876C116.368 47.6427 116.107 47.4607 115.799 47.33C115.5 47.19 115.159 47.12 114.777 47.12C114.394 47.12 114.049 47.19 113.741 47.33C113.442 47.4607 113.185 47.6427 112.971 47.876C112.765 48.1093 112.602 48.3847 112.481 48.702C112.369 49.0193 112.313 49.36 112.313 49.724C112.313 50.088 112.369 50.4287 112.481 50.746C112.602 51.0633 112.765 51.3387 112.971 51.572C113.185 51.8053 113.442 51.992 113.741 52.132C114.049 52.2627 114.394 52.328 114.777 52.328C115.159 52.328 115.5 52.2627 115.799 52.132C116.107 51.992 116.368 51.8053 116.583 51.572C116.797 51.3387 116.961 51.0633 117.073 50.746C117.194 50.4287 117.255 50.088 117.255 49.724ZM118.263 49.724C118.263 50.2187 118.174 50.676 117.997 51.096C117.829 51.516 117.591 51.88 117.283 52.188C116.975 52.496 116.606 52.7387 116.177 52.916C115.757 53.084 115.29 53.168 114.777 53.168C114.273 53.168 113.806 53.084 113.377 52.916C112.957 52.7387 112.593 52.496 112.285 52.188C111.977 51.88 111.734 51.516 111.557 51.096C111.389 50.676 111.305 50.2187 111.305 49.724C111.305 49.2293 111.389 48.772 111.557 48.352C111.734 47.932 111.977 47.568 112.285 47.26C112.593 46.952 112.957 46.714 113.377 46.546C113.806 46.3687 114.273 46.28 114.777 46.28C115.29 46.28 115.757 46.3687 116.177 46.546C116.606 46.714 116.975 46.952 117.283 47.26C117.591 47.568 117.829 47.932 117.997 48.352C118.174 48.772 118.263 49.2293 118.263 49.724ZM122.492 47.288H120.938V53H120.014V47.288H118.628V46.448H120.014V44.656C120.014 43.788 120.214 43.172 120.616 42.808C121.017 42.4347 121.549 42.248 122.212 42.248C122.342 42.248 122.473 42.2573 122.604 42.276C122.744 42.2947 122.879 42.318 123.01 42.346L122.842 43.186C122.73 43.158 122.613 43.1347 122.492 43.116C122.37 43.0973 122.249 43.088 122.128 43.088C121.876 43.088 121.67 43.13 121.512 43.214C121.353 43.298 121.232 43.4193 121.148 43.578C121.064 43.7273 121.008 43.9047 120.98 44.11C120.952 44.3153 120.938 44.5347 120.938 44.768V46.448H122.492V47.288ZM125.888 47.288H124.334V53H123.41V47.288H122.024V46.448H123.41V44.656C123.41 43.788 123.611 43.172 124.012 42.808C124.413 42.4347 124.945 42.248 125.608 42.248C125.739 42.248 125.869 42.2573 126 42.276C126.14 42.2947 126.275 42.318 126.406 42.346L126.238 43.186C126.126 43.158 126.009 43.1347 125.888 43.116C125.767 43.0973 125.645 43.088 125.524 43.088C125.272 43.088 125.067 43.13 124.908 43.214C124.749 43.298 124.628 43.4193 124.544 43.578C124.46 43.7273 124.404 43.9047 124.376 44.11C124.348 44.3153 124.334 44.5347 124.334 44.768V46.448H125.888V47.288ZM127.823 43.928C127.823 44.124 127.753 44.2873 127.613 44.418C127.473 44.5393 127.319 44.6 127.151 44.6C126.983 44.6 126.829 44.5393 126.689 44.418C126.549 44.2873 126.479 44.124 126.479 43.928C126.479 43.732 126.549 43.5733 126.689 43.452C126.829 43.3213 126.983 43.256 127.151 43.256C127.319 43.256 127.473 43.3213 127.613 43.452C127.753 43.5733 127.823 43.732 127.823 43.928ZM127.613 53H126.689V46.448H127.613V53ZM134.116 47.988C133.957 47.7453 133.733 47.54 133.444 47.372C133.164 47.204 132.842 47.12 132.478 47.12C132.095 47.1107 131.75 47.1713 131.442 47.302C131.143 47.4327 130.887 47.6147 130.672 47.848C130.457 48.0813 130.294 48.3613 130.182 48.688C130.07 49.0053 130.014 49.3507 130.014 49.724C130.014 50.0973 130.07 50.4473 130.182 50.774C130.294 51.0913 130.457 51.3667 130.672 51.6C130.887 51.8333 131.143 52.0153 131.442 52.146C131.75 52.2767 132.095 52.3373 132.478 52.328C132.842 52.328 133.164 52.244 133.444 52.076C133.733 51.908 133.957 51.7027 134.116 51.46L134.872 52.034C134.545 52.4167 134.177 52.7013 133.766 52.888C133.355 53.0653 132.926 53.1587 132.478 53.168C131.946 53.1773 131.465 53.098 131.036 52.93C130.607 52.7527 130.238 52.51 129.93 52.202C129.631 51.894 129.403 51.53 129.244 51.11C129.085 50.6807 129.006 50.2187 129.006 49.724C129.006 49.2293 129.085 48.772 129.244 48.352C129.403 47.9227 129.631 47.554 129.93 47.246C130.238 46.938 130.607 46.7 131.036 46.532C131.465 46.3547 131.946 46.2707 132.478 46.28C132.926 46.2893 133.355 46.3873 133.766 46.574C134.177 46.7513 134.545 47.0313 134.872 47.414L134.116 47.988ZM140.692 49.22C140.692 48.5947 140.505 48.0907 140.132 47.708C139.759 47.316 139.236 47.12 138.564 47.12C138.265 47.12 137.976 47.1807 137.696 47.302C137.416 47.414 137.169 47.568 136.954 47.764C136.749 47.96 136.581 48.184 136.45 48.436C136.329 48.688 136.268 48.9493 136.268 49.22H140.692ZM136.24 49.976C136.268 50.3027 136.347 50.6107 136.478 50.9C136.609 51.1893 136.781 51.4413 136.996 51.656C137.211 51.8613 137.458 52.0247 137.738 52.146C138.018 52.2673 138.321 52.328 138.648 52.328C139.143 52.328 139.567 52.216 139.922 51.992C140.286 51.7587 140.561 51.4927 140.748 51.194L141.462 51.782C141.07 52.2767 140.636 52.6313 140.16 52.846C139.693 53.0607 139.189 53.168 138.648 53.168C138.163 53.168 137.71 53.084 137.29 52.916C136.879 52.7387 136.525 52.496 136.226 52.188C135.927 51.88 135.689 51.516 135.512 51.096C135.344 50.676 135.26 50.2187 135.26 49.724C135.26 49.2293 135.344 48.772 135.512 48.352C135.68 47.932 135.913 47.568 136.212 47.26C136.511 46.952 136.861 46.714 137.262 46.546C137.663 46.3687 138.097 46.28 138.564 46.28C139.059 46.28 139.502 46.3687 139.894 46.546C140.286 46.7233 140.613 46.9613 140.874 47.26C141.145 47.5493 141.35 47.8947 141.49 48.296C141.63 48.688 141.7 49.108 141.7 49.556V49.976H136.24ZM147.616 47.47H149.24C149.688 47.47 150.066 47.4233 150.374 47.33C150.691 47.2367 150.943 47.1153 151.13 46.966C151.316 46.8073 151.452 46.6253 151.536 46.42C151.62 46.2053 151.662 45.9767 151.662 45.734C151.662 45.5007 151.62 45.2813 151.536 45.076C151.452 44.8613 151.316 44.6747 151.13 44.516C150.943 44.3573 150.691 44.236 150.374 44.152C150.066 44.0587 149.688 44.012 149.24 44.012H147.616V47.47ZM146.608 43.088H149.492C150.5 43.088 151.293 43.3073 151.872 43.746C152.46 44.1847 152.754 44.8473 152.754 45.734C152.754 46.6207 152.46 47.288 151.872 47.736C151.293 48.1747 150.5 48.394 149.492 48.394H147.616V53H146.608V43.088ZM159.425 49.724C159.425 49.36 159.364 49.0193 159.243 48.702C159.131 48.3847 158.967 48.1093 158.753 47.876C158.538 47.6427 158.277 47.4607 157.969 47.33C157.67 47.19 157.329 47.12 156.947 47.12C156.564 47.12 156.219 47.19 155.911 47.33C155.612 47.4607 155.355 47.6427 155.141 47.876C154.935 48.1093 154.772 48.3847 154.651 48.702C154.539 49.0193 154.483 49.36 154.483 49.724C154.483 50.088 154.539 50.4287 154.651 50.746C154.772 51.0633 154.935 51.3387 155.141 51.572C155.355 51.8053 155.612 51.992 155.911 52.132C156.219 52.2627 156.564 52.328 156.947 52.328C157.329 52.328 157.67 52.2627 157.969 52.132C158.277 51.992 158.538 51.8053 158.753 51.572C158.967 51.3387 159.131 51.0633 159.243 50.746C159.364 50.4287 159.425 50.088 159.425 49.724ZM160.433 49.724C160.433 50.2187 160.344 50.676 160.167 51.096C159.999 51.516 159.761 51.88 159.453 52.188C159.145 52.496 158.776 52.7387 158.347 52.916C157.927 53.084 157.46 53.168 156.947 53.168C156.443 53.168 155.976 53.084 155.547 52.916C155.127 52.7387 154.763 52.496 154.455 52.188C154.147 51.88 153.904 51.516 153.727 51.096C153.559 50.676 153.475 50.2187 153.475 49.724C153.475 49.2293 153.559 48.772 153.727 48.352C153.904 47.932 154.147 47.568 154.455 47.26C154.763 46.952 155.127 46.714 155.547 46.546C155.976 46.3687 156.443 46.28 156.947 46.28C157.46 46.28 157.927 46.3687 158.347 46.546C158.776 46.714 159.145 46.952 159.453 47.26C159.761 47.568 159.999 47.932 160.167 48.352C160.344 48.772 160.433 49.2293 160.433 49.724ZM162.744 53H161.82V42.416H162.744V53ZM165.817 43.928C165.817 44.124 165.747 44.2873 165.607 44.418C165.467 44.5393 165.313 44.6 165.145 44.6C164.977 44.6 164.823 44.5393 164.683 44.418C164.543 44.2873 164.473 44.124 164.473 43.928C164.473 43.732 164.543 43.5733 164.683 43.452C164.823 43.3213 164.977 43.256 165.145 43.256C165.313 43.256 165.467 43.3213 165.607 43.452C165.747 43.5733 165.817 43.732 165.817 43.928ZM165.607 53H164.683V46.448H165.607V53ZM172.11 47.988C171.951 47.7453 171.727 47.54 171.438 47.372C171.158 47.204 170.836 47.12 170.472 47.12C170.089 47.1107 169.744 47.1713 169.436 47.302C169.137 47.4327 168.881 47.6147 168.666 47.848C168.451 48.0813 168.288 48.3613 168.176 48.688C168.064 49.0053 168.008 49.3507 168.008 49.724C168.008 50.0973 168.064 50.4473 168.176 50.774C168.288 51.0913 168.451 51.3667 168.666 51.6C168.881 51.8333 169.137 52.0153 169.436 52.146C169.744 52.2767 170.089 52.3373 170.472 52.328C170.836 52.328 171.158 52.244 171.438 52.076C171.727 51.908 171.951 51.7027 172.11 51.46L172.866 52.034C172.539 52.4167 172.171 52.7013 171.76 52.888C171.349 53.0653 170.92 53.1587 170.472 53.168C169.94 53.1773 169.459 53.098 169.03 52.93C168.601 52.7527 168.232 52.51 167.924 52.202C167.625 51.894 167.397 51.53 167.238 51.11C167.079 50.6807 167 50.2187 167 49.724C167 49.2293 167.079 48.772 167.238 48.352C167.397 47.9227 167.625 47.554 167.924 47.246C168.232 46.938 168.601 46.7 169.03 46.532C169.459 46.3547 169.94 46.2707 170.472 46.28C170.92 46.2893 171.349 46.3873 171.76 46.574C172.171 46.7513 172.539 47.0313 172.866 47.414L172.11 47.988ZM176.026 51.866L178.028 46.448H179.148L175.872 54.708C175.676 55.212 175.424 55.6133 175.116 55.912C174.817 56.2107 174.383 56.36 173.814 56.36C173.674 56.36 173.529 56.3553 173.38 56.346C173.24 56.3367 173.1 56.3087 172.96 56.262L173.058 55.366C173.254 55.4687 173.487 55.52 173.758 55.52C174.085 55.52 174.341 55.4173 174.528 55.212C174.715 55.0067 174.878 54.7173 175.018 54.344L175.494 53.084L172.806 46.448H173.968L176.026 51.866Z" fill="#777777"/>
<rect x="185" y="48" width="10" height="1" rx="0.5" fill="#3F3F3F"/>
<path d="M204.704 50.816H200.476V49.444L204.424 43.088H206.048V49.64H207.448V50.816H206.048V53H204.704V50.816ZM204.704 44.684H204.676L201.652 49.64H204.704V44.684ZM218.278 53H217.018V52.048H216.99C216.747 52.4027 216.411 52.678 215.982 52.874C215.562 53.07 215.128 53.168 214.68 53.168C214.166 53.168 213.7 53.0793 213.28 52.902C212.869 52.7247 212.514 52.4773 212.216 52.16C211.926 51.8427 211.702 51.474 211.544 51.054C211.385 50.634 211.306 50.1767 211.306 49.682C211.306 49.1873 211.385 48.73 211.544 48.31C211.702 47.8807 211.926 47.512 212.216 47.204C212.514 46.8867 212.869 46.6393 213.28 46.462C213.7 46.2847 214.166 46.196 214.68 46.196C215.156 46.196 215.604 46.2987 216.024 46.504C216.444 46.7 216.766 46.9707 216.99 47.316H217.018V42.416H218.278V53ZM214.834 51.992C215.17 51.992 215.473 51.936 215.744 51.824C216.014 51.7027 216.243 51.544 216.43 51.348C216.616 51.1427 216.761 50.9 216.864 50.62C216.966 50.3307 217.018 50.018 217.018 49.682C217.018 49.346 216.966 49.038 216.864 48.758C216.761 48.4687 216.616 48.226 216.43 48.03C216.243 47.8247 216.014 47.666 215.744 47.554C215.473 47.4327 215.17 47.372 214.834 47.372C214.498 47.372 214.194 47.4327 213.924 47.554C213.653 47.666 213.424 47.8247 213.238 48.03C213.051 48.226 212.906 48.4687 212.804 48.758C212.701 49.038 212.65 49.346 212.65 49.682C212.65 50.018 212.701 50.3307 212.804 50.62C212.906 50.9 213.051 51.1427 213.238 51.348C213.424 51.544 213.653 51.7027 213.924 51.824C214.194 51.936 214.498 51.992 214.834 51.992ZM219.714 47.176C220.069 46.8493 220.48 46.6067 220.946 46.448C221.413 46.28 221.88 46.196 222.346 46.196C222.832 46.196 223.247 46.2567 223.592 46.378C223.947 46.4993 224.236 46.6627 224.46 46.868C224.684 47.0733 224.848 47.3113 224.95 47.582C225.062 47.8433 225.118 48.1187 225.118 48.408V51.796C225.118 52.0293 225.123 52.244 225.132 52.44C225.142 52.636 225.156 52.8227 225.174 53H224.054C224.026 52.664 224.012 52.328 224.012 51.992H223.984C223.704 52.4213 223.373 52.7247 222.99 52.902C222.608 53.0793 222.164 53.168 221.66 53.168C221.352 53.168 221.058 53.126 220.778 53.042C220.498 52.958 220.251 52.832 220.036 52.664C219.831 52.496 219.668 52.2907 219.546 52.048C219.425 51.796 219.364 51.5067 219.364 51.18C219.364 50.7507 219.458 50.3913 219.644 50.102C219.84 49.8127 220.102 49.5793 220.428 49.402C220.764 49.2153 221.152 49.0847 221.59 49.01C222.038 48.926 222.514 48.884 223.018 48.884H223.942V48.604C223.942 48.436 223.91 48.268 223.844 48.1C223.779 47.932 223.681 47.7827 223.55 47.652C223.42 47.512 223.256 47.4047 223.06 47.33C222.864 47.246 222.631 47.204 222.36 47.204C222.118 47.204 221.903 47.2273 221.716 47.274C221.539 47.3207 221.376 47.3813 221.226 47.456C221.077 47.5213 220.942 47.6007 220.82 47.694C220.699 47.7873 220.582 47.876 220.47 47.96L219.714 47.176ZM223.27 49.808C222.972 49.808 222.664 49.8267 222.346 49.864C222.038 49.892 221.754 49.9527 221.492 50.046C221.24 50.1393 221.03 50.27 220.862 50.438C220.704 50.606 220.624 50.8207 220.624 51.082C220.624 51.4647 220.75 51.74 221.002 51.908C221.264 52.076 221.614 52.16 222.052 52.16C222.398 52.16 222.692 52.104 222.934 51.992C223.177 51.8707 223.373 51.7167 223.522 51.53C223.672 51.3433 223.779 51.138 223.844 50.914C223.91 50.6807 223.942 50.452 223.942 50.228V49.808H223.27ZM225.648 46.364H227.104L229.078 51.544H229.106L230.982 46.364H232.34L229.19 54.428C229.078 54.7173 228.961 54.9787 228.84 55.212C228.719 55.4547 228.574 55.66 228.406 55.828C228.238 55.996 228.033 56.1267 227.79 56.22C227.557 56.3133 227.267 56.36 226.922 56.36C226.735 56.36 226.544 56.346 226.348 56.318C226.161 56.2993 225.979 56.2527 225.802 56.178L225.956 55.03C226.208 55.1327 226.46 55.184 226.712 55.184C226.908 55.184 227.071 55.156 227.202 55.1C227.342 55.0533 227.459 54.9787 227.552 54.876C227.655 54.7827 227.739 54.6707 227.804 54.54C227.869 54.4093 227.935 54.26 228 54.092L228.406 53.042L225.648 46.364ZM236.474 48.03C236.325 47.8433 236.138 47.6893 235.914 47.568C235.699 47.4373 235.433 47.372 235.116 47.372C234.817 47.372 234.556 47.4373 234.332 47.568C234.117 47.6893 234.01 47.8713 234.01 48.114C234.01 48.31 234.071 48.4687 234.192 48.59C234.323 48.7113 234.472 48.8093 234.64 48.884C234.817 48.9587 235.004 49.0147 235.2 49.052C235.396 49.0893 235.564 49.122 235.704 49.15C235.975 49.2153 236.227 49.2947 236.46 49.388C236.703 49.4813 236.908 49.6027 237.076 49.752C237.253 49.9013 237.389 50.0833 237.482 50.298C237.585 50.5127 237.636 50.774 237.636 51.082C237.636 51.4553 237.557 51.7773 237.398 52.048C237.239 52.3093 237.034 52.524 236.782 52.692C236.53 52.86 236.241 52.9813 235.914 53.056C235.597 53.1307 235.275 53.168 234.948 53.168C234.397 53.168 233.912 53.084 233.492 52.916C233.081 52.748 232.713 52.44 232.386 51.992L233.338 51.208C233.543 51.4133 233.772 51.5953 234.024 51.754C234.276 51.9127 234.584 51.992 234.948 51.992C235.107 51.992 235.265 51.978 235.424 51.95C235.592 51.9127 235.737 51.8613 235.858 51.796C235.989 51.7213 236.091 51.6327 236.166 51.53C236.25 51.418 236.292 51.292 236.292 51.152C236.292 50.9653 236.231 50.8113 236.11 50.69C235.998 50.5687 235.858 50.4753 235.69 50.41C235.531 50.3353 235.359 50.2793 235.172 50.242C234.995 50.1953 234.836 50.158 234.696 50.13C234.425 50.0647 234.169 49.99 233.926 49.906C233.683 49.822 233.469 49.71 233.282 49.57C233.095 49.43 232.946 49.2527 232.834 49.038C232.722 48.8233 232.666 48.5573 232.666 48.24C232.666 47.8947 232.736 47.596 232.876 47.344C233.025 47.0827 233.217 46.868 233.45 46.7C233.693 46.532 233.963 46.406 234.262 46.322C234.57 46.238 234.878 46.196 235.186 46.196C235.634 46.196 236.063 46.28 236.474 46.448C236.885 46.616 237.211 46.896 237.454 47.288L236.474 48.03ZM238.695 53.616L237.715 53.252L242.195 42.472L243.161 42.836L238.695 53.616ZM242.81 46.364H244.224L245.722 51.32H245.75L247.332 46.364H248.662L250.342 51.32H250.37L251.798 46.364H253.128L250.986 53H249.712L247.962 48.044H247.934L246.352 53H244.994L242.81 46.364ZM254.683 50.144C254.683 50.4333 254.744 50.6993 254.865 50.942C254.996 51.1753 255.164 51.376 255.369 51.544C255.575 51.712 255.813 51.8427 256.083 51.936C256.354 52.0293 256.634 52.076 256.923 52.076C257.315 52.076 257.656 51.9873 257.945 51.81C258.235 51.6233 258.501 51.3807 258.743 51.082L259.695 51.81C258.995 52.7153 258.015 53.168 256.755 53.168C256.233 53.168 255.757 53.0793 255.327 52.902C254.907 52.7247 254.548 52.482 254.249 52.174C253.96 51.8567 253.736 51.488 253.577 51.068C253.419 50.6387 253.339 50.1767 253.339 49.682C253.339 49.1873 253.423 48.73 253.591 48.31C253.769 47.8807 254.007 47.512 254.305 47.204C254.613 46.8867 254.977 46.6393 255.397 46.462C255.817 46.2847 256.275 46.196 256.769 46.196C257.357 46.196 257.852 46.2987 258.253 46.504C258.664 46.7093 259 46.98 259.261 47.316C259.523 47.6427 259.709 48.016 259.821 48.436C259.943 48.8467 260.003 49.2667 260.003 49.696V50.144H254.683ZM258.659 49.136C258.65 48.856 258.603 48.5993 258.519 48.366C258.445 48.1327 258.328 47.932 258.169 47.764C258.011 47.5867 257.81 47.4513 257.567 47.358C257.334 47.2553 257.059 47.204 256.741 47.204C256.433 47.204 256.149 47.2647 255.887 47.386C255.635 47.498 255.421 47.6473 255.243 47.834C255.066 48.0207 254.926 48.2307 254.823 48.464C254.73 48.688 254.683 48.912 254.683 49.136H258.659ZM261.963 50.144C261.963 50.4333 262.023 50.6993 262.145 50.942C262.275 51.1753 262.443 51.376 262.649 51.544C262.854 51.712 263.092 51.8427 263.363 51.936C263.633 52.0293 263.913 52.076 264.203 52.076C264.595 52.076 264.935 51.9873 265.225 51.81C265.514 51.6233 265.78 51.3807 266.023 51.082L266.975 51.81C266.275 52.7153 265.295 53.168 264.035 53.168C263.512 53.168 263.036 53.0793 262.607 52.902C262.187 52.7247 261.827 52.482 261.529 52.174C261.239 51.8567 261.015 51.488 260.857 51.068C260.698 50.6387 260.619 50.1767 260.619 49.682C260.619 49.1873 260.703 48.73 260.871 48.31C261.048 47.8807 261.286 47.512 261.585 47.204C261.893 46.8867 262.257 46.6393 262.677 46.462C263.097 46.2847 263.554 46.196 264.049 46.196C264.637 46.196 265.131 46.2987 265.533 46.504C265.943 46.7093 266.279 46.98 266.541 47.316C266.802 47.6427 266.989 48.016 267.101 48.436C267.222 48.8467 267.283 49.2667 267.283 49.696V50.144H261.963ZM265.939 49.136C265.929 48.856 265.883 48.5993 265.799 48.366C265.724 48.1327 265.607 47.932 265.449 47.764C265.29 47.5867 265.089 47.4513 264.847 47.358C264.613 47.2553 264.338 47.204 264.021 47.204C263.713 47.204 263.428 47.2647 263.167 47.386C262.915 47.498 262.7 47.6473 262.523 47.834C262.345 48.0207 262.205 48.2307 262.103 48.464C262.009 48.688 261.963 48.912 261.963 49.136H265.939ZM268.29 42.416H269.55V49.248L272.406 46.378H274.156L271.062 49.388L274.422 53H272.63L269.55 49.556V53H268.29V42.416Z" fill="#303030"/>
<path d="M51.5 48.5C51.5 39.1112 59.1112 31.5 68.5 31.5H272.5C281.889 31.5 289.5 39.1112 289.5 48.5C289.5 57.8888 281.889 65.5 272.5 65.5H68.5C59.1112 65.5 51.5 57.8888 51.5 48.5Z" stroke="#29C584"/>
<path d="M98 83L101.27 73H138L135.233 83H98Z" fill="#29C584"/>
<path d="M219.309 83L222.579 73H259.309L256.541 83H219.309Z" fill="#29C584"/>
<path d="M138.436 83L141.706 73H178.436L175.668 83H138.436Z" fill="#29C584"/>
<path d="M178.873 83L182.143 73H218.873L216.106 83H178.873Z" fill="#29C584"/>
<path d="M180.215 87.088H183.701C184.336 87.088 184.859 87.1767 185.269 87.354C185.68 87.522 186.002 87.7413 186.235 88.012C186.478 88.2733 186.646 88.572 186.739 88.908C186.833 89.2347 186.879 89.552 186.879 89.86C186.879 90.168 186.833 90.49 186.739 90.826C186.646 91.1527 186.478 91.4513 186.235 91.722C186.002 91.9833 185.68 92.2027 185.269 92.38C184.859 92.548 184.336 92.632 183.701 92.632H181.559V97H180.215V87.088ZM181.559 91.456H183.323C183.585 91.456 183.841 91.4373 184.093 91.4C184.355 91.3533 184.583 91.274 184.779 91.162C184.985 91.05 185.148 90.8913 185.269 90.686C185.391 90.4713 185.451 90.196 185.451 89.86C185.451 89.524 185.391 89.2533 185.269 89.048C185.148 88.8333 184.985 88.67 184.779 88.558C184.583 88.446 184.355 88.3713 184.093 88.334C183.841 88.2873 183.585 88.264 183.323 88.264H181.559V91.456ZM188.644 94.144C188.644 94.4333 188.705 94.6993 188.826 94.942C188.957 95.1753 189.125 95.376 189.33 95.544C189.536 95.712 189.774 95.8427 190.044 95.936C190.315 96.0293 190.595 96.076 190.884 96.076C191.276 96.076 191.617 95.9873 191.906 95.81C192.196 95.6233 192.462 95.3807 192.704 95.082L193.656 95.81C192.956 96.7153 191.976 97.168 190.716 97.168C190.194 97.168 189.718 97.0793 189.288 96.902C188.868 96.7247 188.509 96.482 188.21 96.174C187.921 95.8567 187.697 95.488 187.538 95.068C187.38 94.6387 187.3 94.1767 187.3 93.682C187.3 93.1873 187.384 92.73 187.552 92.31C187.73 91.8807 187.968 91.512 188.266 91.204C188.574 90.8867 188.938 90.6393 189.358 90.462C189.778 90.2847 190.236 90.196 190.73 90.196C191.318 90.196 191.813 90.2987 192.214 90.504C192.625 90.7093 192.961 90.98 193.222 91.316C193.484 91.6427 193.67 92.016 193.782 92.436C193.904 92.8467 193.964 93.2667 193.964 93.696V94.144H188.644ZM192.62 93.136C192.611 92.856 192.564 92.5993 192.48 92.366C192.406 92.1327 192.289 91.932 192.13 91.764C191.972 91.5867 191.771 91.4513 191.528 91.358C191.295 91.2553 191.02 91.204 190.702 91.204C190.394 91.204 190.11 91.2647 189.848 91.386C189.596 91.498 189.382 91.6473 189.204 91.834C189.027 92.0207 188.887 92.2307 188.784 92.464C188.691 92.688 188.644 92.912 188.644 93.136H192.62ZM194.972 90.364H196.232V91.386H196.26C196.344 91.2087 196.456 91.05 196.596 90.91C196.736 90.7607 196.89 90.6347 197.058 90.532C197.235 90.4293 197.426 90.35 197.632 90.294C197.837 90.2287 198.042 90.196 198.248 90.196C198.453 90.196 198.64 90.224 198.808 90.28L198.752 91.638C198.649 91.61 198.546 91.5867 198.444 91.568C198.341 91.5493 198.238 91.54 198.136 91.54C197.52 91.54 197.048 91.7127 196.722 92.058C196.395 92.4033 196.232 92.94 196.232 93.668V97H194.972V90.364ZM200.143 91.456H198.715V90.364H200.143V88.88C200.143 87.9933 200.311 87.3353 200.647 86.906C200.993 86.4673 201.581 86.248 202.411 86.248C202.551 86.248 202.696 86.2527 202.845 86.262C203.004 86.2713 203.172 86.2993 203.349 86.346L203.209 87.466C203.088 87.4193 202.971 87.3867 202.859 87.368C202.747 87.3493 202.626 87.34 202.495 87.34C202.262 87.34 202.075 87.3773 201.935 87.452C201.795 87.5173 201.683 87.6153 201.599 87.746C201.525 87.8767 201.473 88.0353 201.445 88.222C201.427 88.3993 201.417 88.6047 201.417 88.838V90.364H202.915V91.456H201.403V97H200.143V91.456ZM204.767 94.144C204.767 94.4333 204.828 94.6993 204.949 94.942C205.08 95.1753 205.248 95.376 205.453 95.544C205.659 95.712 205.897 95.8427 206.167 95.936C206.438 96.0293 206.718 96.076 207.007 96.076C207.399 96.076 207.74 95.9873 208.029 95.81C208.319 95.6233 208.585 95.3807 208.827 95.082L209.779 95.81C209.079 96.7153 208.099 97.168 206.839 97.168C206.317 97.168 205.841 97.0793 205.411 96.902C204.991 96.7247 204.632 96.482 204.333 96.174C204.044 95.8567 203.82 95.488 203.661 95.068C203.503 94.6387 203.423 94.1767 203.423 93.682C203.423 93.1873 203.507 92.73 203.675 92.31C203.853 91.8807 204.091 91.512 204.389 91.204C204.697 90.8867 205.061 90.6393 205.481 90.462C205.901 90.2847 206.359 90.196 206.853 90.196C207.441 90.196 207.936 90.2987 208.337 90.504C208.748 90.7093 209.084 90.98 209.345 91.316C209.607 91.6427 209.793 92.016 209.905 92.436C210.027 92.8467 210.087 93.2667 210.087 93.696V94.144H204.767ZM208.743 93.136C208.734 92.856 208.687 92.5993 208.603 92.366C208.529 92.1327 208.412 91.932 208.253 91.764C208.095 91.5867 207.894 91.4513 207.651 91.358C207.418 91.2553 207.143 91.204 206.825 91.204C206.517 91.204 206.233 91.2647 205.971 91.386C205.719 91.498 205.505 91.6473 205.327 91.834C205.15 92.0207 205.01 92.2307 204.907 92.464C204.814 92.688 204.767 92.912 204.767 93.136H208.743ZM215.841 92.128C215.607 91.8853 215.36 91.7033 215.099 91.582C214.847 91.4513 214.543 91.386 214.189 91.386C213.843 91.386 213.54 91.4513 213.279 91.582C213.027 91.7033 212.812 91.876 212.635 92.1C212.467 92.3147 212.336 92.5667 212.243 92.856C212.159 93.136 212.117 93.43 212.117 93.738C212.117 94.046 212.168 94.34 212.271 94.62C212.373 94.8907 212.518 95.1287 212.705 95.334C212.891 95.5393 213.115 95.7027 213.377 95.824C213.638 95.936 213.932 95.992 214.259 95.992C214.613 95.992 214.917 95.9313 215.169 95.81C215.421 95.6793 215.654 95.4927 215.869 95.25L216.765 96.146C216.438 96.51 216.055 96.7713 215.617 96.93C215.187 97.0887 214.73 97.168 214.245 97.168C213.731 97.168 213.26 97.084 212.831 96.916C212.411 96.748 212.047 96.5147 211.739 96.216C211.431 95.908 211.193 95.544 211.025 95.124C210.857 94.6947 210.773 94.2233 210.773 93.71C210.773 93.1967 210.857 92.7253 211.025 92.296C211.193 91.8667 211.426 91.498 211.725 91.19C212.033 90.882 212.397 90.644 212.817 90.476C213.246 90.2987 213.722 90.21 214.245 90.21C214.73 90.21 215.192 90.2987 215.631 90.476C216.079 90.644 216.466 90.9053 216.793 91.26L215.841 92.128ZM220.904 91.456H219.098V94.466C219.098 94.6527 219.103 94.8393 219.112 95.026C219.122 95.2033 219.154 95.3667 219.21 95.516C219.276 95.656 219.369 95.7727 219.49 95.866C219.621 95.95 219.808 95.992 220.05 95.992C220.2 95.992 220.354 95.978 220.512 95.95C220.671 95.922 220.816 95.8707 220.946 95.796V96.944C220.797 97.028 220.601 97.084 220.358 97.112C220.125 97.1493 219.943 97.168 219.812 97.168C219.327 97.168 218.949 97.1027 218.678 96.972C218.417 96.832 218.221 96.6547 218.09 96.44C217.969 96.2253 217.894 95.9873 217.866 95.726C217.848 95.4553 217.838 95.1847 217.838 94.914V91.456H216.382V90.364H217.838V88.502H219.098V90.364H220.904V91.456ZM224.489 87.088H225.889L228.073 95.012H228.101L230.439 87.088H231.979L234.317 95.012H234.345L236.529 87.088H237.929L235.045 97H233.631L231.223 88.908H231.195L228.801 97H227.387L224.489 87.088ZM238.689 94.144C238.689 94.4333 238.75 94.6993 238.871 94.942C239.002 95.1753 239.17 95.376 239.375 95.544C239.58 95.712 239.818 95.8427 240.089 95.936C240.36 96.0293 240.64 96.076 240.929 96.076C241.321 96.076 241.662 95.9873 241.951 95.81C242.24 95.6233 242.506 95.3807 242.749 95.082L243.701 95.81C243.001 96.7153 242.021 97.168 240.761 97.168C240.238 97.168 239.762 97.0793 239.333 96.902C238.913 96.7247 238.554 96.482 238.255 96.174C237.966 95.8567 237.742 95.488 237.583 95.068C237.424 94.6387 237.345 94.1767 237.345 93.682C237.345 93.1873 237.429 92.73 237.597 92.31C237.774 91.8807 238.012 91.512 238.311 91.204C238.619 90.8867 238.983 90.6393 239.403 90.462C239.823 90.2847 240.28 90.196 240.775 90.196C241.363 90.196 241.858 90.2987 242.259 90.504C242.67 90.7093 243.006 90.98 243.267 91.316C243.528 91.6427 243.715 92.016 243.827 92.436C243.948 92.8467 244.009 93.2667 244.009 93.696V94.144H238.689ZM242.665 93.136C242.656 92.856 242.609 92.5993 242.525 92.366C242.45 92.1327 242.334 91.932 242.175 91.764C242.016 91.5867 241.816 91.4513 241.573 91.358C241.34 91.2553 241.064 91.204 240.747 91.204C240.439 91.204 240.154 91.2647 239.893 91.386C239.641 91.498 239.426 91.6473 239.249 91.834C239.072 92.0207 238.932 92.2307 238.829 92.464C238.736 92.688 238.689 92.912 238.689 93.136H242.665ZM245.968 94.144C245.968 94.4333 246.029 94.6993 246.15 94.942C246.281 95.1753 246.449 95.376 246.654 95.544C246.86 95.712 247.098 95.8427 247.368 95.936C247.639 96.0293 247.919 96.076 248.208 96.076C248.6 96.076 248.941 95.9873 249.23 95.81C249.52 95.6233 249.786 95.3807 250.028 95.082L250.98 95.81C250.28 96.7153 249.3 97.168 248.04 97.168C247.518 97.168 247.042 97.0793 246.612 96.902C246.192 96.7247 245.833 96.482 245.534 96.174C245.245 95.8567 245.021 95.488 244.862 95.068C244.704 94.6387 244.624 94.1767 244.624 93.682C244.624 93.1873 244.708 92.73 244.876 92.31C245.054 91.8807 245.292 91.512 245.59 91.204C245.898 90.8867 246.262 90.6393 246.682 90.462C247.102 90.2847 247.56 90.196 248.054 90.196C248.642 90.196 249.137 90.2987 249.538 90.504C249.949 90.7093 250.285 90.98 250.546 91.316C250.808 91.6427 250.994 92.016 251.106 92.436C251.228 92.8467 251.288 93.2667 251.288 93.696V94.144H245.968ZM249.944 93.136C249.935 92.856 249.888 92.5993 249.804 92.366C249.73 92.1327 249.613 91.932 249.454 91.764C249.296 91.5867 249.095 91.4513 248.852 91.358C248.619 91.2553 248.344 91.204 248.026 91.204C247.718 91.204 247.434 91.2647 247.172 91.386C246.92 91.498 246.706 91.6473 246.528 91.834C246.351 92.0207 246.211 92.2307 246.108 92.464C246.015 92.688 245.968 92.912 245.968 93.136H249.944ZM252.296 86.416H253.556V93.248L256.412 90.378H258.162L255.068 93.388L258.428 97H256.636L253.556 93.556V97H252.296V86.416ZM260.694 94.144H259.35V87.088H260.694V94.144ZM259.126 96.16C259.126 95.908 259.214 95.6933 259.392 95.516C259.578 95.3293 259.798 95.236 260.05 95.236C260.302 95.236 260.516 95.3293 260.694 95.516C260.88 95.6933 260.974 95.908 260.974 96.16C260.974 96.412 260.88 96.6313 260.694 96.818C260.516 96.9953 260.302 97.084 260.05 97.084C259.798 97.084 259.578 96.9953 259.392 96.818C259.214 96.6313 259.126 96.412 259.126 96.16Z" fill="#323232"/>
<defs>
<filter id="filter0_d_6207_60911" x="0" y="0" width="341" height="132" filterUnits="userSpaceOnUse" color-interpolation-filters="sRGB">
<feFlood flood-opacity="0" result="BackgroundImageFix"/>
<feColorMatrix in="SourceAlpha" type="matrix" values="0 0 0 0 0 0 0 0 0 0 0 0 0 0 0 0 0 0 127 0" result="hardAlpha"/>
<feOffset dy="1"/>
<feGaussianBlur stdDeviation="2.5"/>
<feColorMatrix type="matrix" values="0 0 0 0 0.862745 0 0 0 0 0.862745 0 0 0 0 0.862745 0 0 0 0.8 0"/>
<feBlend mode="normal" in2="BackgroundImageFix" result="effect1_dropShadow_6207_60911"/>
<feBlend mode="normal" in="SourceGraphic" in2="effect1_dropShadow_6207_60911" result="shape"/>
</filter>
</defs>
</svg>
