<svg width="265" height="151" viewBox="0 0 265 151" fill="none" xmlns="http://www.w3.org/2000/svg">
<g clip-path="url(#clip0_6188_36282)">
<rect width="265" height="151" rx="10" fill="white"/>
<path d="M19.1115 84.416L21.9795 77.504H23.2995V86H22.4355V78.656H22.4115L19.3395 86H18.8835L15.8115 78.656H15.7875V86H14.9235V77.504H16.2435L19.1115 84.416ZM29.6233 83.192C29.6233 82.88 29.5713 82.588 29.4673 82.316C29.3713 82.044 29.2313 81.808 29.0473 81.608C28.8633 81.408 28.6393 81.252 28.3753 81.14C28.1193 81.02 27.8273 80.96 27.4993 80.96C27.1713 80.96 26.8753 81.02 26.6113 81.14C26.3553 81.252 26.1353 81.408 25.9513 81.608C25.7753 81.808 25.6353 82.044 25.5313 82.316C25.4353 82.588 25.3873 82.88 25.3873 83.192C25.3873 83.504 25.4353 83.796 25.5313 84.068C25.6353 84.34 25.7753 84.576 25.9513 84.776C26.1353 84.976 26.3553 85.136 26.6113 85.256C26.8753 85.368 27.1713 85.424 27.4993 85.424C27.8273 85.424 28.1193 85.368 28.3753 85.256C28.6393 85.136 28.8633 84.976 29.0473 84.776C29.2313 84.576 29.3713 84.34 29.4673 84.068C29.5713 83.796 29.6233 83.504 29.6233 83.192ZM30.4873 83.192C30.4873 83.616 30.4113 84.008 30.2593 84.368C30.1153 84.728 29.9113 85.04 29.6473 85.304C29.3833 85.568 29.0673 85.776 28.6993 85.928C28.3393 86.072 27.9393 86.144 27.4993 86.144C27.0673 86.144 26.6673 86.072 26.2993 85.928C25.9393 85.776 25.6273 85.568 25.3633 85.304C25.0993 85.04 24.8913 84.728 24.7393 84.368C24.5953 84.008 24.5233 83.616 24.5233 83.192C24.5233 82.768 24.5953 82.376 24.7393 82.016C24.8913 81.656 25.0993 81.344 25.3633 81.08C25.6273 80.816 25.9393 80.612 26.2993 80.468C26.6673 80.316 27.0673 80.24 27.4993 80.24C27.9393 80.24 28.3393 80.316 28.6993 80.468C29.0673 80.612 29.3833 80.816 29.6473 81.08C29.9113 81.344 30.1153 81.656 30.2593 82.016C30.4113 82.376 30.4873 82.768 30.4873 83.192ZM32.1805 80.384C32.1965 80.536 32.2045 80.688 32.2045 80.84C32.2125 80.984 32.2165 81.132 32.2165 81.284H32.2405C32.3285 81.132 32.4405 80.992 32.5765 80.864C32.7125 80.736 32.8645 80.628 33.0325 80.54C33.2005 80.444 33.3765 80.372 33.5605 80.324C33.7525 80.268 33.9405 80.24 34.1245 80.24C34.8445 80.24 35.3765 80.432 35.7205 80.816C36.0645 81.192 36.2365 81.732 36.2365 82.436V86H35.4445V82.892C35.4445 82.268 35.3365 81.792 35.1205 81.464C34.9045 81.128 34.5045 80.96 33.9205 80.96C33.8805 80.96 33.7685 80.976 33.5845 81.008C33.4005 81.04 33.2045 81.128 32.9965 81.272C32.7965 81.416 32.6165 81.632 32.4565 81.92C32.2965 82.208 32.2165 82.608 32.2165 83.12V86H31.4245V81.62C31.4245 81.468 31.4165 81.276 31.4005 81.044C31.3925 80.812 31.3805 80.592 31.3645 80.384H32.1805Z" fill="black"/>
<path d="M22.418 94.152C21.954 94.152 21.586 94.276 21.314 94.524C21.05 94.772 20.85 95.08 20.714 95.448C20.578 95.816 20.49 96.208 20.45 96.624C20.418 97.04 20.402 97.416 20.402 97.752C20.402 98.088 20.418 98.464 20.45 98.88C20.49 99.296 20.578 99.688 20.714 100.056C20.85 100.424 21.05 100.732 21.314 100.98C21.586 101.228 21.954 101.352 22.418 101.352C22.882 101.352 23.246 101.228 23.51 100.98C23.782 100.732 23.986 100.424 24.122 100.056C24.258 99.688 24.342 99.296 24.374 98.88C24.414 98.464 24.434 98.088 24.434 97.752C24.434 97.416 24.414 97.04 24.374 96.624C24.342 96.208 24.258 95.816 24.122 95.448C23.986 95.08 23.782 94.772 23.51 94.524C23.246 94.276 22.882 94.152 22.418 94.152ZM22.418 93.36C23.026 93.36 23.518 93.5 23.894 93.78C24.27 94.06 24.562 94.416 24.77 94.848C24.978 95.28 25.118 95.756 25.19 96.276C25.262 96.788 25.298 97.28 25.298 97.752C25.298 98.224 25.262 98.72 25.19 99.24C25.118 99.752 24.978 100.224 24.77 100.656C24.562 101.088 24.27 101.444 23.894 101.724C23.518 102.004 23.026 102.144 22.418 102.144C21.81 102.144 21.318 102.004 20.942 101.724C20.566 101.444 20.274 101.088 20.066 100.656C19.858 100.224 19.718 99.752 19.646 99.24C19.574 98.72 19.538 98.224 19.538 97.752C19.538 97.28 19.574 96.788 19.646 96.276C19.718 95.756 19.858 95.28 20.066 94.848C20.274 94.416 20.566 94.06 20.942 93.78C21.318 93.5 21.81 93.36 22.418 93.36ZM26.69 99.516C26.69 99.788 26.734 100.036 26.822 100.26C26.918 100.484 27.05 100.68 27.218 100.848C27.386 101.008 27.586 101.132 27.818 101.22C28.05 101.308 28.306 101.352 28.586 101.352C28.866 101.352 29.122 101.308 29.354 101.22C29.586 101.132 29.786 101.008 29.954 100.848C30.122 100.68 30.25 100.484 30.338 100.26C30.434 100.036 30.482 99.788 30.482 99.516C30.482 99.244 30.434 98.996 30.338 98.772C30.25 98.548 30.122 98.356 29.954 98.196C29.786 98.036 29.586 97.912 29.354 97.824C29.122 97.728 28.866 97.68 28.586 97.68C28.306 97.68 28.05 97.728 27.818 97.824C27.586 97.912 27.386 98.036 27.218 98.196C27.05 98.356 26.918 98.548 26.822 98.772C26.734 98.996 26.69 99.244 26.69 99.516ZM27.554 97.152L27.578 97.176C27.714 97.08 27.894 97.008 28.118 96.96C28.35 96.912 28.562 96.888 28.754 96.888C29.122 96.888 29.462 96.956 29.774 97.092C30.094 97.22 30.37 97.4 30.602 97.632C30.834 97.864 31.014 98.14 31.142 98.46C31.278 98.78 31.346 99.132 31.346 99.516C31.346 99.908 31.278 100.264 31.142 100.584C31.006 100.904 30.814 101.18 30.566 101.412C30.318 101.644 30.026 101.824 29.69 101.952C29.354 102.08 28.986 102.144 28.586 102.144C28.186 102.144 27.818 102.08 27.482 101.952C27.146 101.824 26.854 101.644 26.606 101.412C26.358 101.18 26.166 100.904 26.03 100.584C25.894 100.264 25.826 99.908 25.826 99.516C25.826 99.044 25.894 98.632 26.03 98.28C26.174 97.928 26.35 97.58 26.558 97.236L28.85 93.504H29.87L27.554 97.152Z" fill="black"/>
<path d="M20.3135 128H19.4495V120.296H16.6055V119.504H23.1575V120.296H20.3135V128ZM26.6466 128C26.6306 127.848 26.6186 127.7 26.6106 127.556C26.6106 127.404 26.6106 127.252 26.6106 127.1H26.5866C26.4986 127.252 26.3866 127.392 26.2506 127.52C26.1146 127.648 25.9626 127.76 25.7946 127.856C25.6266 127.944 25.4466 128.012 25.2546 128.06C25.0706 128.116 24.8866 128.144 24.7026 128.144C23.9826 128.144 23.4506 127.956 23.1066 127.58C22.7626 127.196 22.5906 126.652 22.5906 125.948V122.384H23.3826V125.492C23.3826 125.804 23.4066 126.08 23.4546 126.32C23.5026 126.56 23.5826 126.764 23.6946 126.932C23.8146 127.092 23.9706 127.216 24.1626 127.304C24.3626 127.384 24.6106 127.424 24.9066 127.424C24.9466 127.424 25.0586 127.408 25.2426 127.376C25.4266 127.344 25.6186 127.256 25.8186 127.112C26.0266 126.968 26.2106 126.752 26.3706 126.464C26.5306 126.176 26.6106 125.776 26.6106 125.264V122.384H27.4026V126.764C27.4026 126.916 27.4066 127.108 27.4146 127.34C27.4306 127.572 27.4466 127.792 27.4626 128H26.6466ZM33.1265 124.76C33.1265 124.224 32.9665 123.792 32.6465 123.464C32.3265 123.128 31.8785 122.96 31.3025 122.96C31.0465 122.96 30.7985 123.012 30.5585 123.116C30.3185 123.212 30.1065 123.344 29.9225 123.512C29.7465 123.68 29.6025 123.872 29.4905 124.088C29.3865 124.304 29.3345 124.528 29.3345 124.76H33.1265ZM29.3105 125.408C29.3345 125.688 29.4025 125.952 29.5145 126.2C29.6265 126.448 29.7745 126.664 29.9585 126.848C30.1425 127.024 30.3545 127.164 30.5945 127.268C30.8345 127.372 31.0945 127.424 31.3745 127.424C31.7985 127.424 32.1625 127.328 32.4665 127.136C32.7785 126.936 33.0145 126.708 33.1745 126.452L33.7865 126.956C33.4505 127.38 33.0785 127.684 32.6705 127.868C32.2705 128.052 31.8385 128.144 31.3745 128.144C30.9585 128.144 30.5705 128.072 30.2105 127.928C29.8585 127.776 29.5545 127.568 29.2985 127.304C29.0425 127.04 28.8385 126.728 28.6865 126.368C28.5425 126.008 28.4705 125.616 28.4705 125.192C28.4705 124.768 28.5425 124.376 28.6865 124.016C28.8305 123.656 29.0305 123.344 29.2865 123.08C29.5425 122.816 29.8425 122.612 30.1865 122.468C30.5305 122.316 30.9025 122.24 31.3025 122.24C31.7265 122.24 32.1065 122.316 32.4425 122.468C32.7785 122.62 33.0585 122.824 33.2825 123.08C33.5145 123.328 33.6905 123.624 33.8105 123.968C33.9305 124.304 33.9905 124.664 33.9905 125.048V125.408H29.3105Z" fill="black"/>
<path d="M22.418 136.152C21.954 136.152 21.586 136.276 21.314 136.524C21.05 136.772 20.85 137.08 20.714 137.448C20.578 137.816 20.49 138.208 20.45 138.624C20.418 139.04 20.402 139.416 20.402 139.752C20.402 140.088 20.418 140.464 20.45 140.88C20.49 141.296 20.578 141.688 20.714 142.056C20.85 142.424 21.05 142.732 21.314 142.98C21.586 143.228 21.954 143.352 22.418 143.352C22.882 143.352 23.246 143.228 23.51 142.98C23.782 142.732 23.986 142.424 24.122 142.056C24.258 141.688 24.342 141.296 24.374 140.88C24.414 140.464 24.434 140.088 24.434 139.752C24.434 139.416 24.414 139.04 24.374 138.624C24.342 138.208 24.258 137.816 24.122 137.448C23.986 137.08 23.782 136.772 23.51 136.524C23.246 136.276 22.882 136.152 22.418 136.152ZM22.418 135.36C23.026 135.36 23.518 135.5 23.894 135.78C24.27 136.06 24.562 136.416 24.77 136.848C24.978 137.28 25.118 137.756 25.19 138.276C25.262 138.788 25.298 139.28 25.298 139.752C25.298 140.224 25.262 140.72 25.19 141.24C25.118 141.752 24.978 142.224 24.77 142.656C24.562 143.088 24.27 143.444 23.894 143.724C23.518 144.004 23.026 144.144 22.418 144.144C21.81 144.144 21.318 144.004 20.942 143.724C20.566 143.444 20.274 143.088 20.066 142.656C19.858 142.224 19.718 141.752 19.646 141.24C19.574 140.72 19.538 140.224 19.538 139.752C19.538 139.28 19.574 138.788 19.646 138.276C19.718 137.756 19.858 137.28 20.066 136.848C20.274 136.416 20.566 136.06 20.942 135.78C21.318 135.5 21.81 135.36 22.418 135.36ZM30.938 136.296L27.518 144H26.546L30.038 136.296H25.898V135.504H30.938V136.296Z" fill="black"/>
<mask id="path-6-inside-1_6188_36282" fill="white">
<path d="M76.7338 37.2667H67.4005C67.2165 37.2667 67.0671 37.416 67.0671 37.6V38.2667C67.0671 38.4507 67.2165 38.6 67.4005 38.6C67.5845 38.6 67.7338 38.4507 67.7338 38.2667V37.9334H76.7338C76.9178 37.9334 77.0671 37.7841 77.0671 37.6001C77.0671 37.4161 76.9178 37.2667 76.7338 37.2667Z"/>
<path d="M69.7338 26.9333C69.7338 27.1173 69.8831 27.2666 70.0671 27.2666H71.4004C71.5844 27.2666 71.7338 27.1173 71.7338 26.9333V24.9333C71.7338 24.7493 71.5844 24.6 71.4004 24.6H70.0671C69.8831 24.6 69.7338 24.7493 69.7338 24.9333L69.7338 26.9333ZM70.4004 25.2667H71.0671V26.6H70.4004V25.2667Z"/>
<path d="M66.7337 22.6H62.7337C62.5497 22.6 62.4004 22.7493 62.4004 22.9333V29.6C62.4004 29.784 62.5497 29.9333 62.7337 29.9333C62.9177 29.9333 63.067 29.784 63.067 29.6V23.2667H66.7337C66.9177 23.2667 67.067 23.1173 67.067 22.9333C67.067 22.7494 66.9177 22.6 66.7337 22.6Z"/>
<path d="M78.4004 34.9333C78.4004 35.1173 78.5497 35.2667 78.7337 35.2667H80.0671C80.251 35.2667 80.4004 35.1173 80.4004 34.9333V32.9333C80.4004 32.7494 80.251 32.6 80.0671 32.6H78.7337C78.5497 32.6 78.4004 32.7494 78.4004 32.9333V34.9333ZM79.0671 33.2667H79.7338V34.6H79.0671V33.2667Z"/>
<path d="M64.0671 30.6C62.4194 30.6 62.4004 34.89 62.4004 34.9333C62.4004 35.7383 62.9741 36.4114 63.7337 36.5664V38.2667C63.7337 38.4507 63.8831 38.6 64.067 38.6C64.251 38.6 64.4004 38.4507 64.4004 38.2667V36.5664C65.16 36.4114 65.7337 35.7383 65.7337 34.9333C65.7337 34.89 65.7147 30.6 64.0671 30.6ZM64.0671 35.9333C63.5157 35.9333 63.0671 35.4847 63.0671 34.9333C63.0671 33.2727 63.5131 31.2667 64.0671 31.2667C64.6211 31.2667 65.0671 33.2727 65.0671 34.9333C65.0671 35.4847 64.6184 35.9333 64.0671 35.9333Z"/>
<path d="M66.067 28.6H64.7337C64.5497 28.6 64.4003 28.7493 64.4003 28.9333V29.6C64.4003 29.784 64.5497 29.9333 64.7337 29.9333C64.9176 29.9333 65.067 29.784 65.067 29.6V29.2667H65.7337V30.9334C65.7337 31.1174 65.883 31.2667 66.067 31.2667C66.251 31.2667 66.4003 31.1174 66.4003 30.9334V28.9334C66.4003 28.7493 66.251 28.6 66.067 28.6Z"/>
<path d="M78.7337 27.2667H80.0671C80.251 27.2667 80.4004 27.1173 80.4004 26.9334V24.9334C80.4004 24.7494 80.251 24.6 80.0671 24.6H78.7337C78.5497 24.6 78.4004 24.7494 78.4004 24.9334V26.9334C78.4004 27.1173 78.5497 27.2667 78.7337 27.2667ZM79.0671 25.2667H79.7338V26.6H79.0671V25.2667Z"/>
<path d="M66.067 24.6H64.7337C64.5497 24.6 64.4003 24.7493 64.4003 24.9333V26.9333C64.4003 27.1173 64.5497 27.2666 64.7337 27.2666H66.067C66.251 27.2666 66.4003 27.1173 66.4003 26.9333V24.9333C66.4003 24.7493 66.251 24.6 66.067 24.6ZM65.7337 26.6H65.067V25.2667H65.7337L65.7337 26.6Z"/>
<path d="M73.0671 26.9333C73.0671 27.1173 73.2165 27.2666 73.4005 27.2666H74.7338C74.9178 27.2666 75.0671 27.1173 75.0671 26.9333V24.9333C75.0671 24.7493 74.9178 24.6 74.7338 24.6H73.4005C73.2165 24.6 73.0671 24.7493 73.0671 24.9333V26.9333ZM73.7338 25.2667H74.4005V26.6H73.7338V25.2667Z"/>
<path d="M82.0671 22.6H78.0671C77.8831 22.6 77.7337 22.7493 77.7337 22.9333C77.7337 23.1173 77.8831 23.2666 78.0671 23.2666H81.7337V36.6614C81.6291 36.624 81.5181 36.6 81.4004 36.6C81.3428 36.6 81.2854 36.605 81.2291 36.615C80.9991 36.2007 80.5614 35.9333 80.0671 35.9333C79.5728 35.9333 79.1351 36.2007 78.9051 36.615C78.8488 36.605 78.7914 36.6 78.7338 36.6C78.1825 36.6 77.7338 37.0487 77.7338 37.6C77.7338 38.1514 78.1825 38.6 78.7338 38.6H81.4004C81.9517 38.6 82.4004 38.1514 82.4004 37.6V22.9333C82.4004 22.7493 82.2511 22.6 82.0671 22.6ZM81.4004 37.9334H78.7337C78.55 37.9334 78.4004 37.7837 78.4004 37.6C78.4004 37.4164 78.55 37.2667 78.7337 37.2667C78.7977 37.2667 78.8584 37.285 78.9144 37.321C79.0057 37.3797 79.1197 37.3904 79.2204 37.3497C79.321 37.3091 79.3954 37.2217 79.4197 37.116C79.4901 36.8124 79.7564 36.6 80.0671 36.6C80.3777 36.6 80.6441 36.8124 80.7144 37.116C80.7387 37.2217 80.8131 37.3091 80.9137 37.3497C81.0141 37.3904 81.1284 37.3797 81.2198 37.321C81.4368 37.181 81.7337 37.3524 81.7337 37.6C81.7337 37.7837 81.5841 37.9334 81.4004 37.9334Z"/>
<path d="M73.4005 23.2667H74.7338C74.9178 23.2667 75.0671 23.1173 75.0671 22.9333V20.9333C75.0671 20.7494 74.9178 20.6 74.7338 20.6H73.4005C73.2165 20.6 73.0671 20.7494 73.0671 20.9333V22.9333C73.0671 23.1173 73.2165 23.2667 73.4005 23.2667ZM73.7338 21.2667H74.4005V22.6H73.7338V21.2667Z"/>
<path d="M73.0671 30.9333C73.0671 31.1173 73.2165 31.2667 73.4005 31.2667H74.7338C74.9178 31.2667 75.0671 31.1173 75.0671 30.9333V28.9333C75.0671 28.7493 74.9178 28.6 74.7338 28.6H73.4005C73.2165 28.6 73.0671 28.7493 73.0671 28.9333V30.9333ZM73.7338 29.2667H74.4005V30.6H73.7338V29.2667Z"/>
<path d="M70.0671 23.2667H71.4004C71.5844 23.2667 71.7338 23.1173 71.7338 22.9333V20.9333C71.7338 20.7494 71.5844 20.6 71.4004 20.6H70.0671C69.8831 20.6 69.7338 20.7494 69.7338 20.9333V22.9333C69.7338 23.1173 69.8831 23.2667 70.0671 23.2667ZM70.4004 21.2667H71.0671V22.6H70.4004V21.2667Z"/>
<path d="M72.1638 34.6967C72.1038 34.76 72.0671 34.8467 72.0671 34.9334C72.0671 35.0201 72.1038 35.1067 72.1638 35.1701C72.2271 35.2301 72.3138 35.2667 72.4005 35.2667C72.4872 35.2667 72.5738 35.2301 72.6372 35.1701C72.6972 35.1067 72.7338 35.0201 72.7338 34.9334C72.7338 34.8467 72.6972 34.7601 72.6372 34.6967C72.5105 34.5733 72.2905 34.5733 72.1638 34.6967Z"/>
<path d="M69.7338 30.9333C69.7338 31.1173 69.8831 31.2667 70.0671 31.2667H71.4004C71.5844 31.2667 71.7338 31.1173 71.7338 30.9333V28.9333C71.7338 28.7493 71.5844 28.6 71.4004 28.6H70.0671C69.8831 28.6 69.7338 28.7493 69.7338 28.9333L69.7338 30.9333ZM70.4004 29.2667H71.0671V30.6H70.4004V29.2667Z"/>
<path d="M69.0671 32.9333C69.0671 33.1173 69.2164 33.2667 69.4004 33.2667H70.4004V36.2667C70.4004 36.4507 70.5498 36.6 70.7337 36.6C70.9177 36.6 71.0671 36.4507 71.0671 36.2667V33.2667H73.7338V36.2667C73.7338 36.4507 73.8831 36.6 74.0671 36.6C74.2511 36.6 74.4004 36.4507 74.4004 36.2667V33.2667H75.4004C75.5844 33.2667 75.7337 33.1173 75.7337 32.9333C75.7337 32.7494 75.5844 32.6 75.4004 32.6H69.4004C69.2164 32.6 69.0671 32.7494 69.0671 32.9333Z"/>
<path d="M78.4004 30.9333C78.4004 31.1173 78.5497 31.2667 78.7337 31.2667H80.0671C80.251 31.2667 80.4004 31.1173 80.4004 30.9333V28.9333C80.4004 28.7493 80.251 28.6 80.0671 28.6H78.7337C78.5497 28.6 78.4004 28.7493 78.4004 28.9333V30.9333ZM79.0671 29.2667H79.7338V30.6H79.0671V29.2667Z"/>
<path d="M76.7337 18.6H68.067C67.883 18.6 67.7337 18.7493 67.7337 18.9333V36.2667C67.7337 36.4507 67.883 36.6 68.067 36.6C68.251 36.6 68.4004 36.4507 68.4004 36.2667V19.2666H76.4004V36.2667C76.4004 36.4507 76.5497 36.6 76.7337 36.6C76.9177 36.6 77.067 36.4507 77.067 36.2667V18.9333C77.0671 18.7493 76.9177 18.6 76.7337 18.6Z"/>
</mask>
<path d="M76.7338 37.2667H67.4005C67.2165 37.2667 67.0671 37.416 67.0671 37.6V38.2667C67.0671 38.4507 67.2165 38.6 67.4005 38.6C67.5845 38.6 67.7338 38.4507 67.7338 38.2667V37.9334H76.7338C76.9178 37.9334 77.0671 37.7841 77.0671 37.6001C77.0671 37.4161 76.9178 37.2667 76.7338 37.2667Z" fill="#283237"/>
<path d="M69.7338 26.9333C69.7338 27.1173 69.8831 27.2666 70.0671 27.2666H71.4004C71.5844 27.2666 71.7338 27.1173 71.7338 26.9333V24.9333C71.7338 24.7493 71.5844 24.6 71.4004 24.6H70.0671C69.8831 24.6 69.7338 24.7493 69.7338 24.9333L69.7338 26.9333ZM70.4004 25.2667H71.0671V26.6H70.4004V25.2667Z" fill="#283237"/>
<path d="M66.7337 22.6H62.7337C62.5497 22.6 62.4004 22.7493 62.4004 22.9333V29.6C62.4004 29.784 62.5497 29.9333 62.7337 29.9333C62.9177 29.9333 63.067 29.784 63.067 29.6V23.2667H66.7337C66.9177 23.2667 67.067 23.1173 67.067 22.9333C67.067 22.7494 66.9177 22.6 66.7337 22.6Z" fill="#283237"/>
<path d="M78.4004 34.9333C78.4004 35.1173 78.5497 35.2667 78.7337 35.2667H80.0671C80.251 35.2667 80.4004 35.1173 80.4004 34.9333V32.9333C80.4004 32.7494 80.251 32.6 80.0671 32.6H78.7337C78.5497 32.6 78.4004 32.7494 78.4004 32.9333V34.9333ZM79.0671 33.2667H79.7338V34.6H79.0671V33.2667Z" fill="#283237"/>
<path d="M64.0671 30.6C62.4194 30.6 62.4004 34.89 62.4004 34.9333C62.4004 35.7383 62.9741 36.4114 63.7337 36.5664V38.2667C63.7337 38.4507 63.8831 38.6 64.067 38.6C64.251 38.6 64.4004 38.4507 64.4004 38.2667V36.5664C65.16 36.4114 65.7337 35.7383 65.7337 34.9333C65.7337 34.89 65.7147 30.6 64.0671 30.6ZM64.0671 35.9333C63.5157 35.9333 63.0671 35.4847 63.0671 34.9333C63.0671 33.2727 63.5131 31.2667 64.0671 31.2667C64.6211 31.2667 65.0671 33.2727 65.0671 34.9333C65.0671 35.4847 64.6184 35.9333 64.0671 35.9333Z" fill="#283237"/>
<path d="M66.067 28.6H64.7337C64.5497 28.6 64.4003 28.7493 64.4003 28.9333V29.6C64.4003 29.784 64.5497 29.9333 64.7337 29.9333C64.9176 29.9333 65.067 29.784 65.067 29.6V29.2667H65.7337V30.9334C65.7337 31.1174 65.883 31.2667 66.067 31.2667C66.251 31.2667 66.4003 31.1174 66.4003 30.9334V28.9334C66.4003 28.7493 66.251 28.6 66.067 28.6Z" fill="#283237"/>
<path d="M78.7337 27.2667H80.0671C80.251 27.2667 80.4004 27.1173 80.4004 26.9334V24.9334C80.4004 24.7494 80.251 24.6 80.0671 24.6H78.7337C78.5497 24.6 78.4004 24.7494 78.4004 24.9334V26.9334C78.4004 27.1173 78.5497 27.2667 78.7337 27.2667ZM79.0671 25.2667H79.7338V26.6H79.0671V25.2667Z" fill="#283237"/>
<path d="M66.067 24.6H64.7337C64.5497 24.6 64.4003 24.7493 64.4003 24.9333V26.9333C64.4003 27.1173 64.5497 27.2666 64.7337 27.2666H66.067C66.251 27.2666 66.4003 27.1173 66.4003 26.9333V24.9333C66.4003 24.7493 66.251 24.6 66.067 24.6ZM65.7337 26.6H65.067V25.2667H65.7337L65.7337 26.6Z" fill="#283237"/>
<path d="M73.0671 26.9333C73.0671 27.1173 73.2165 27.2666 73.4005 27.2666H74.7338C74.9178 27.2666 75.0671 27.1173 75.0671 26.9333V24.9333C75.0671 24.7493 74.9178 24.6 74.7338 24.6H73.4005C73.2165 24.6 73.0671 24.7493 73.0671 24.9333V26.9333ZM73.7338 25.2667H74.4005V26.6H73.7338V25.2667Z" fill="#283237"/>
<path d="M82.0671 22.6H78.0671C77.8831 22.6 77.7337 22.7493 77.7337 22.9333C77.7337 23.1173 77.8831 23.2666 78.0671 23.2666H81.7337V36.6614C81.6291 36.624 81.5181 36.6 81.4004 36.6C81.3428 36.6 81.2854 36.605 81.2291 36.615C80.9991 36.2007 80.5614 35.9333 80.0671 35.9333C79.5728 35.9333 79.1351 36.2007 78.9051 36.615C78.8488 36.605 78.7914 36.6 78.7338 36.6C78.1825 36.6 77.7338 37.0487 77.7338 37.6C77.7338 38.1514 78.1825 38.6 78.7338 38.6H81.4004C81.9517 38.6 82.4004 38.1514 82.4004 37.6V22.9333C82.4004 22.7493 82.2511 22.6 82.0671 22.6ZM81.4004 37.9334H78.7337C78.55 37.9334 78.4004 37.7837 78.4004 37.6C78.4004 37.4164 78.55 37.2667 78.7337 37.2667C78.7977 37.2667 78.8584 37.285 78.9144 37.321C79.0057 37.3797 79.1197 37.3904 79.2204 37.3497C79.321 37.3091 79.3954 37.2217 79.4197 37.116C79.4901 36.8124 79.7564 36.6 80.0671 36.6C80.3777 36.6 80.6441 36.8124 80.7144 37.116C80.7387 37.2217 80.8131 37.3091 80.9137 37.3497C81.0141 37.3904 81.1284 37.3797 81.2198 37.321C81.4368 37.181 81.7337 37.3524 81.7337 37.6C81.7337 37.7837 81.5841 37.9334 81.4004 37.9334Z" fill="#283237"/>
<path d="M73.4005 23.2667H74.7338C74.9178 23.2667 75.0671 23.1173 75.0671 22.9333V20.9333C75.0671 20.7494 74.9178 20.6 74.7338 20.6H73.4005C73.2165 20.6 73.0671 20.7494 73.0671 20.9333V22.9333C73.0671 23.1173 73.2165 23.2667 73.4005 23.2667ZM73.7338 21.2667H74.4005V22.6H73.7338V21.2667Z" fill="#283237"/>
<path d="M73.0671 30.9333C73.0671 31.1173 73.2165 31.2667 73.4005 31.2667H74.7338C74.9178 31.2667 75.0671 31.1173 75.0671 30.9333V28.9333C75.0671 28.7493 74.9178 28.6 74.7338 28.6H73.4005C73.2165 28.6 73.0671 28.7493 73.0671 28.9333V30.9333ZM73.7338 29.2667H74.4005V30.6H73.7338V29.2667Z" fill="#283237"/>
<path d="M70.0671 23.2667H71.4004C71.5844 23.2667 71.7338 23.1173 71.7338 22.9333V20.9333C71.7338 20.7494 71.5844 20.6 71.4004 20.6H70.0671C69.8831 20.6 69.7338 20.7494 69.7338 20.9333V22.9333C69.7338 23.1173 69.8831 23.2667 70.0671 23.2667ZM70.4004 21.2667H71.0671V22.6H70.4004V21.2667Z" fill="#283237"/>
<path d="M72.1638 34.6967C72.1038 34.76 72.0671 34.8467 72.0671 34.9334C72.0671 35.0201 72.1038 35.1067 72.1638 35.1701C72.2271 35.2301 72.3138 35.2667 72.4005 35.2667C72.4872 35.2667 72.5738 35.2301 72.6372 35.1701C72.6972 35.1067 72.7338 35.0201 72.7338 34.9334C72.7338 34.8467 72.6972 34.7601 72.6372 34.6967C72.5105 34.5733 72.2905 34.5733 72.1638 34.6967Z" fill="#283237"/>
<path d="M69.7338 30.9333C69.7338 31.1173 69.8831 31.2667 70.0671 31.2667H71.4004C71.5844 31.2667 71.7338 31.1173 71.7338 30.9333V28.9333C71.7338 28.7493 71.5844 28.6 71.4004 28.6H70.0671C69.8831 28.6 69.7338 28.7493 69.7338 28.9333L69.7338 30.9333ZM70.4004 29.2667H71.0671V30.6H70.4004V29.2667Z" fill="#283237"/>
<path d="M69.0671 32.9333C69.0671 33.1173 69.2164 33.2667 69.4004 33.2667H70.4004V36.2667C70.4004 36.4507 70.5498 36.6 70.7337 36.6C70.9177 36.6 71.0671 36.4507 71.0671 36.2667V33.2667H73.7338V36.2667C73.7338 36.4507 73.8831 36.6 74.0671 36.6C74.2511 36.6 74.4004 36.4507 74.4004 36.2667V33.2667H75.4004C75.5844 33.2667 75.7337 33.1173 75.7337 32.9333C75.7337 32.7494 75.5844 32.6 75.4004 32.6H69.4004C69.2164 32.6 69.0671 32.7494 69.0671 32.9333Z" fill="#283237"/>
<path d="M78.4004 30.9333C78.4004 31.1173 78.5497 31.2667 78.7337 31.2667H80.0671C80.251 31.2667 80.4004 31.1173 80.4004 30.9333V28.9333C80.4004 28.7493 80.251 28.6 80.0671 28.6H78.7337C78.5497 28.6 78.4004 28.7493 78.4004 28.9333V30.9333ZM79.0671 29.2667H79.7338V30.6H79.0671V29.2667Z" fill="#283237"/>
<path d="M76.7337 18.6H68.067C67.883 18.6 67.7337 18.7493 67.7337 18.9333V36.2667C67.7337 36.4507 67.883 36.6 68.067 36.6C68.251 36.6 68.4004 36.4507 68.4004 36.2667V19.2666H76.4004V36.2667C76.4004 36.4507 76.5497 36.6 76.7337 36.6C76.9177 36.6 77.067 36.4507 77.067 36.2667V18.9333C77.0671 18.7493 76.9177 18.6 76.7337 18.6Z" fill="#283237"/>
<path d="M76.7338 37.2667H67.4005C67.2165 37.2667 67.0671 37.416 67.0671 37.6V38.2667C67.0671 38.4507 67.2165 38.6 67.4005 38.6C67.5845 38.6 67.7338 38.4507 67.7338 38.2667V37.9334H76.7338C76.9178 37.9334 77.0671 37.7841 77.0671 37.6001C77.0671 37.4161 76.9178 37.2667 76.7338 37.2667Z" stroke="#283237" stroke-width="2" mask="url(#path-6-inside-1_6188_36282)"/>
<path d="M69.7338 26.9333C69.7338 27.1173 69.8831 27.2666 70.0671 27.2666H71.4004C71.5844 27.2666 71.7338 27.1173 71.7338 26.9333V24.9333C71.7338 24.7493 71.5844 24.6 71.4004 24.6H70.0671C69.8831 24.6 69.7338 24.7493 69.7338 24.9333L69.7338 26.9333ZM70.4004 25.2667H71.0671V26.6H70.4004V25.2667Z" stroke="#283237" stroke-width="2" mask="url(#path-6-inside-1_6188_36282)"/>
<path d="M66.7337 22.6H62.7337C62.5497 22.6 62.4004 22.7493 62.4004 22.9333V29.6C62.4004 29.784 62.5497 29.9333 62.7337 29.9333C62.9177 29.9333 63.067 29.784 63.067 29.6V23.2667H66.7337C66.9177 23.2667 67.067 23.1173 67.067 22.9333C67.067 22.7494 66.9177 22.6 66.7337 22.6Z" stroke="#283237" stroke-width="2" mask="url(#path-6-inside-1_6188_36282)"/>
<path d="M78.4004 34.9333C78.4004 35.1173 78.5497 35.2667 78.7337 35.2667H80.0671C80.251 35.2667 80.4004 35.1173 80.4004 34.9333V32.9333C80.4004 32.7494 80.251 32.6 80.0671 32.6H78.7337C78.5497 32.6 78.4004 32.7494 78.4004 32.9333V34.9333ZM79.0671 33.2667H79.7338V34.6H79.0671V33.2667Z" stroke="#283237" stroke-width="2" mask="url(#path-6-inside-1_6188_36282)"/>
<path d="M64.0671 30.6C62.4194 30.6 62.4004 34.89 62.4004 34.9333C62.4004 35.7383 62.9741 36.4114 63.7337 36.5664V38.2667C63.7337 38.4507 63.8831 38.6 64.067 38.6C64.251 38.6 64.4004 38.4507 64.4004 38.2667V36.5664C65.16 36.4114 65.7337 35.7383 65.7337 34.9333C65.7337 34.89 65.7147 30.6 64.0671 30.6ZM64.0671 35.9333C63.5157 35.9333 63.0671 35.4847 63.0671 34.9333C63.0671 33.2727 63.5131 31.2667 64.0671 31.2667C64.6211 31.2667 65.0671 33.2727 65.0671 34.9333C65.0671 35.4847 64.6184 35.9333 64.0671 35.9333Z" stroke="#283237" stroke-width="2" mask="url(#path-6-inside-1_6188_36282)"/>
<path d="M66.067 28.6H64.7337C64.5497 28.6 64.4003 28.7493 64.4003 28.9333V29.6C64.4003 29.784 64.5497 29.9333 64.7337 29.9333C64.9176 29.9333 65.067 29.784 65.067 29.6V29.2667H65.7337V30.9334C65.7337 31.1174 65.883 31.2667 66.067 31.2667C66.251 31.2667 66.4003 31.1174 66.4003 30.9334V28.9334C66.4003 28.7493 66.251 28.6 66.067 28.6Z" stroke="#283237" stroke-width="2" mask="url(#path-6-inside-1_6188_36282)"/>
<path d="M78.7337 27.2667H80.0671C80.251 27.2667 80.4004 27.1173 80.4004 26.9334V24.9334C80.4004 24.7494 80.251 24.6 80.0671 24.6H78.7337C78.5497 24.6 78.4004 24.7494 78.4004 24.9334V26.9334C78.4004 27.1173 78.5497 27.2667 78.7337 27.2667ZM79.0671 25.2667H79.7338V26.6H79.0671V25.2667Z" stroke="#283237" stroke-width="2" mask="url(#path-6-inside-1_6188_36282)"/>
<path d="M66.067 24.6H64.7337C64.5497 24.6 64.4003 24.7493 64.4003 24.9333V26.9333C64.4003 27.1173 64.5497 27.2666 64.7337 27.2666H66.067C66.251 27.2666 66.4003 27.1173 66.4003 26.9333V24.9333C66.4003 24.7493 66.251 24.6 66.067 24.6ZM65.7337 26.6H65.067V25.2667H65.7337L65.7337 26.6Z" stroke="#283237" stroke-width="2" mask="url(#path-6-inside-1_6188_36282)"/>
<path d="M73.0671 26.9333C73.0671 27.1173 73.2165 27.2666 73.4005 27.2666H74.7338C74.9178 27.2666 75.0671 27.1173 75.0671 26.9333V24.9333C75.0671 24.7493 74.9178 24.6 74.7338 24.6H73.4005C73.2165 24.6 73.0671 24.7493 73.0671 24.9333V26.9333ZM73.7338 25.2667H74.4005V26.6H73.7338V25.2667Z" stroke="#283237" stroke-width="2" mask="url(#path-6-inside-1_6188_36282)"/>
<path d="M82.0671 22.6H78.0671C77.8831 22.6 77.7337 22.7493 77.7337 22.9333C77.7337 23.1173 77.8831 23.2666 78.0671 23.2666H81.7337V36.6614C81.6291 36.624 81.5181 36.6 81.4004 36.6C81.3428 36.6 81.2854 36.605 81.2291 36.615C80.9991 36.2007 80.5614 35.9333 80.0671 35.9333C79.5728 35.9333 79.1351 36.2007 78.9051 36.615C78.8488 36.605 78.7914 36.6 78.7338 36.6C78.1825 36.6 77.7338 37.0487 77.7338 37.6C77.7338 38.1514 78.1825 38.6 78.7338 38.6H81.4004C81.9517 38.6 82.4004 38.1514 82.4004 37.6V22.9333C82.4004 22.7493 82.2511 22.6 82.0671 22.6ZM81.4004 37.9334H78.7337C78.55 37.9334 78.4004 37.7837 78.4004 37.6C78.4004 37.4164 78.55 37.2667 78.7337 37.2667C78.7977 37.2667 78.8584 37.285 78.9144 37.321C79.0057 37.3797 79.1197 37.3904 79.2204 37.3497C79.321 37.3091 79.3954 37.2217 79.4197 37.116C79.4901 36.8124 79.7564 36.6 80.0671 36.6C80.3777 36.6 80.6441 36.8124 80.7144 37.116C80.7387 37.2217 80.8131 37.3091 80.9137 37.3497C81.0141 37.3904 81.1284 37.3797 81.2198 37.321C81.4368 37.181 81.7337 37.3524 81.7337 37.6C81.7337 37.7837 81.5841 37.9334 81.4004 37.9334Z" stroke="#283237" stroke-width="2" mask="url(#path-6-inside-1_6188_36282)"/>
<path d="M73.4005 23.2667H74.7338C74.9178 23.2667 75.0671 23.1173 75.0671 22.9333V20.9333C75.0671 20.7494 74.9178 20.6 74.7338 20.6H73.4005C73.2165 20.6 73.0671 20.7494 73.0671 20.9333V22.9333C73.0671 23.1173 73.2165 23.2667 73.4005 23.2667ZM73.7338 21.2667H74.4005V22.6H73.7338V21.2667Z" stroke="#283237" stroke-width="2" mask="url(#path-6-inside-1_6188_36282)"/>
<path d="M73.0671 30.9333C73.0671 31.1173 73.2165 31.2667 73.4005 31.2667H74.7338C74.9178 31.2667 75.0671 31.1173 75.0671 30.9333V28.9333C75.0671 28.7493 74.9178 28.6 74.7338 28.6H73.4005C73.2165 28.6 73.0671 28.7493 73.0671 28.9333V30.9333ZM73.7338 29.2667H74.4005V30.6H73.7338V29.2667Z" stroke="#283237" stroke-width="2" mask="url(#path-6-inside-1_6188_36282)"/>
<path d="M70.0671 23.2667H71.4004C71.5844 23.2667 71.7338 23.1173 71.7338 22.9333V20.9333C71.7338 20.7494 71.5844 20.6 71.4004 20.6H70.0671C69.8831 20.6 69.7338 20.7494 69.7338 20.9333V22.9333C69.7338 23.1173 69.8831 23.2667 70.0671 23.2667ZM70.4004 21.2667H71.0671V22.6H70.4004V21.2667Z" stroke="#283237" stroke-width="2" mask="url(#path-6-inside-1_6188_36282)"/>
<path d="M72.1638 34.6967C72.1038 34.76 72.0671 34.8467 72.0671 34.9334C72.0671 35.0201 72.1038 35.1067 72.1638 35.1701C72.2271 35.2301 72.3138 35.2667 72.4005 35.2667C72.4872 35.2667 72.5738 35.2301 72.6372 35.1701C72.6972 35.1067 72.7338 35.0201 72.7338 34.9334C72.7338 34.8467 72.6972 34.7601 72.6372 34.6967C72.5105 34.5733 72.2905 34.5733 72.1638 34.6967Z" stroke="#283237" stroke-width="2" mask="url(#path-6-inside-1_6188_36282)"/>
<path d="M69.7338 30.9333C69.7338 31.1173 69.8831 31.2667 70.0671 31.2667H71.4004C71.5844 31.2667 71.7338 31.1173 71.7338 30.9333V28.9333C71.7338 28.7493 71.5844 28.6 71.4004 28.6H70.0671C69.8831 28.6 69.7338 28.7493 69.7338 28.9333L69.7338 30.9333ZM70.4004 29.2667H71.0671V30.6H70.4004V29.2667Z" stroke="#283237" stroke-width="2" mask="url(#path-6-inside-1_6188_36282)"/>
<path d="M69.0671 32.9333C69.0671 33.1173 69.2164 33.2667 69.4004 33.2667H70.4004V36.2667C70.4004 36.4507 70.5498 36.6 70.7337 36.6C70.9177 36.6 71.0671 36.4507 71.0671 36.2667V33.2667H73.7338V36.2667C73.7338 36.4507 73.8831 36.6 74.0671 36.6C74.2511 36.6 74.4004 36.4507 74.4004 36.2667V33.2667H75.4004C75.5844 33.2667 75.7337 33.1173 75.7337 32.9333C75.7337 32.7494 75.5844 32.6 75.4004 32.6H69.4004C69.2164 32.6 69.0671 32.7494 69.0671 32.9333Z" stroke="#283237" stroke-width="2" mask="url(#path-6-inside-1_6188_36282)"/>
<path d="M78.4004 30.9333C78.4004 31.1173 78.5497 31.2667 78.7337 31.2667H80.0671C80.251 31.2667 80.4004 31.1173 80.4004 30.9333V28.9333C80.4004 28.7493 80.251 28.6 80.0671 28.6H78.7337C78.5497 28.6 78.4004 28.7493 78.4004 28.9333V30.9333ZM79.0671 29.2667H79.7338V30.6H79.0671V29.2667Z" stroke="#283237" stroke-width="2" mask="url(#path-6-inside-1_6188_36282)"/>
<path d="M76.7337 18.6H68.067C67.883 18.6 67.7337 18.7493 67.7337 18.9333V36.2667C67.7337 36.4507 67.883 36.6 68.067 36.6C68.251 36.6 68.4004 36.4507 68.4004 36.2667V19.2666H76.4004V36.2667C76.4004 36.4507 76.5497 36.6 76.7337 36.6C76.9177 36.6 77.067 36.4507 77.067 36.2667V18.9333C77.0671 18.7493 76.9177 18.6 76.7337 18.6Z" stroke="#283237" stroke-width="2" mask="url(#path-6-inside-1_6188_36282)"/>
<circle cx="72" cy="29" r="19.75" stroke="black" stroke-width="0.5"/>
<path d="M51.5512 68H50.5432V58.088H51.5512V68ZM54.2806 61.448C54.2993 61.6253 54.3086 61.8027 54.3086 61.98C54.318 62.148 54.3226 62.3207 54.3226 62.498H54.3506C54.4533 62.3207 54.584 62.1573 54.7426 62.008C54.9013 61.8587 55.0786 61.7327 55.2746 61.63C55.4706 61.518 55.676 61.434 55.8906 61.378C56.1146 61.3127 56.334 61.28 56.5486 61.28C57.3886 61.28 58.0093 61.504 58.4106 61.952C58.812 62.3907 59.0126 63.0207 59.0126 63.842V68H58.0886V64.374C58.0886 63.646 57.9626 63.0907 57.7106 62.708C57.4586 62.316 56.992 62.12 56.3106 62.12C56.264 62.12 56.1333 62.1387 55.9186 62.176C55.704 62.2133 55.4753 62.316 55.2326 62.484C54.9993 62.652 54.7893 62.904 54.6026 63.24C54.416 63.576 54.3226 64.0427 54.3226 64.64V68H53.3986V62.89C53.3986 62.7127 53.3893 62.4887 53.3706 62.218C53.3613 61.9473 53.3473 61.6907 53.3286 61.448H54.2806ZM69.6884 64.724C69.6884 64.36 69.6277 64.0193 69.5064 63.702C69.3944 63.3847 69.2311 63.1093 69.0164 62.876C68.8017 62.6427 68.5404 62.4607 68.2324 62.33C67.9337 62.19 67.5931 62.12 67.2104 62.12C66.8277 62.12 66.4824 62.19 66.1744 62.33C65.8757 62.4607 65.6191 62.6427 65.4044 62.876C65.1991 63.1093 65.0357 63.3847 64.9144 63.702C64.8024 64.0193 64.7464 64.36 64.7464 64.724C64.7464 65.088 64.8024 65.4287 64.9144 65.746C65.0357 66.0633 65.1991 66.3387 65.4044 66.572C65.6191 66.8053 65.8757 66.992 66.1744 67.132C66.4824 67.2627 66.8277 67.328 67.2104 67.328C67.5931 67.328 67.9337 67.2627 68.2324 67.132C68.5404 66.992 68.8017 66.8053 69.0164 66.572C69.2311 66.3387 69.3944 66.0633 69.5064 65.746C69.6277 65.4287 69.6884 65.088 69.6884 64.724ZM70.6964 64.724C70.6964 65.2187 70.6077 65.676 70.4304 66.096C70.2624 66.516 70.0244 66.88 69.7164 67.188C69.4084 67.496 69.0397 67.7387 68.6104 67.916C68.1904 68.084 67.7237 68.168 67.2104 68.168C66.7064 68.168 66.2397 68.084 65.8104 67.916C65.3904 67.7387 65.0264 67.496 64.7184 67.188C64.4104 66.88 64.1677 66.516 63.9904 66.096C63.8224 65.676 63.7384 65.2187 63.7384 64.724C63.7384 64.2293 63.8224 63.772 63.9904 63.352C64.1677 62.932 64.4104 62.568 64.7184 62.26C65.0264 61.952 65.3904 61.714 65.8104 61.546C66.2397 61.3687 66.7064 61.28 67.2104 61.28C67.7237 61.28 68.1904 61.3687 68.6104 61.546C69.0397 61.714 69.4084 61.952 69.7164 62.26C70.0244 62.568 70.2624 62.932 70.4304 63.352C70.6077 63.772 70.6964 64.2293 70.6964 64.724ZM74.9252 62.288H73.3712V68H72.4472V62.288H71.0612V61.448H72.4472V59.656C72.4472 58.788 72.6479 58.172 73.0492 57.808C73.4506 57.4347 73.9826 57.248 74.6452 57.248C74.7759 57.248 74.9066 57.2573 75.0372 57.276C75.1772 57.2947 75.3126 57.318 75.4432 57.346L75.2752 58.186C75.1632 58.158 75.0466 58.1347 74.9252 58.116C74.8039 58.0973 74.6826 58.088 74.5612 58.088C74.3092 58.088 74.1039 58.13 73.9452 58.214C73.7866 58.298 73.6652 58.4193 73.5812 58.578C73.4972 58.7273 73.4412 58.9047 73.4132 59.11C73.3852 59.3153 73.3712 59.5347 73.3712 59.768V61.448H74.9252V62.288ZM78.3217 62.288H76.7677V68H75.8437V62.288H74.4577V61.448H75.8437V59.656C75.8437 58.788 76.0444 58.172 76.4457 57.808C76.8471 57.4347 77.3791 57.248 78.0417 57.248C78.1724 57.248 78.3031 57.2573 78.4337 57.276C78.5737 57.2947 78.7091 57.318 78.8397 57.346L78.6717 58.186C78.5597 58.158 78.4431 58.1347 78.3217 58.116C78.2004 58.0973 78.0791 58.088 77.9577 58.088C77.7057 58.088 77.5004 58.13 77.3417 58.214C77.1831 58.298 77.0617 58.4193 76.9777 58.578C76.8937 58.7273 76.8377 58.9047 76.8097 59.11C76.7817 59.3153 76.7677 59.5347 76.7677 59.768V61.448H78.3217V62.288ZM80.2563 58.928C80.2563 59.124 80.1863 59.2873 80.0463 59.418C79.9063 59.5393 79.7523 59.6 79.5843 59.6C79.4163 59.6 79.2623 59.5393 79.1223 59.418C78.9823 59.2873 78.9123 59.124 78.9123 58.928C78.9123 58.732 78.9823 58.5733 79.1223 58.452C79.2623 58.3213 79.4163 58.256 79.5843 58.256C79.7523 58.256 79.9063 58.3213 80.0463 58.452C80.1863 58.5733 80.2563 58.732 80.2563 58.928ZM80.0463 68H79.1223V61.448H80.0463V68ZM86.5496 62.988C86.3909 62.7453 86.1669 62.54 85.8776 62.372C85.5976 62.204 85.2756 62.12 84.9116 62.12C84.5289 62.1107 84.1836 62.1713 83.8756 62.302C83.5769 62.4327 83.3202 62.6147 83.1056 62.848C82.8909 63.0813 82.7276 63.3613 82.6156 63.688C82.5036 64.0053 82.4476 64.3507 82.4476 64.724C82.4476 65.0973 82.5036 65.4473 82.6156 65.774C82.7276 66.0913 82.8909 66.3667 83.1056 66.6C83.3202 66.8333 83.5769 67.0153 83.8756 67.146C84.1836 67.2767 84.5289 67.3373 84.9116 67.328C85.2756 67.328 85.5976 67.244 85.8776 67.076C86.1669 66.908 86.3909 66.7027 86.5496 66.46L87.3056 67.034C86.9789 67.4167 86.6102 67.7013 86.1996 67.888C85.7889 68.0653 85.3596 68.1587 84.9116 68.168C84.3796 68.1773 83.8989 68.098 83.4696 67.93C83.0402 67.7527 82.6716 67.51 82.3636 67.202C82.0649 66.894 81.8362 66.53 81.6776 66.11C81.5189 65.6807 81.4396 65.2187 81.4396 64.724C81.4396 64.2293 81.5189 63.772 81.6776 63.352C81.8362 62.9227 82.0649 62.554 82.3636 62.246C82.6716 61.938 83.0402 61.7 83.4696 61.532C83.8989 61.3547 84.3796 61.2707 84.9116 61.28C85.3596 61.2893 85.7889 61.3873 86.1996 61.574C86.6102 61.7513 86.9789 62.0313 87.3056 62.414L86.5496 62.988ZM93.1255 64.22C93.1255 63.5947 92.9388 63.0907 92.5655 62.708C92.1922 62.316 91.6695 62.12 90.9975 62.12C90.6988 62.12 90.4095 62.1807 90.1295 62.302C89.8495 62.414 89.6022 62.568 89.3875 62.764C89.1822 62.96 89.0142 63.184 88.8835 63.436C88.7622 63.688 88.7015 63.9493 88.7015 64.22H93.1255ZM88.6735 64.976C88.7015 65.3027 88.7808 65.6107 88.9115 65.9C89.0422 66.1893 89.2148 66.4413 89.4295 66.656C89.6442 66.8613 89.8915 67.0247 90.1715 67.146C90.4515 67.2673 90.7548 67.328 91.0815 67.328C91.5762 67.328 92.0008 67.216 92.3555 66.992C92.7195 66.7587 92.9948 66.4927 93.1815 66.194L93.8955 66.782C93.5035 67.2767 93.0695 67.6313 92.5935 67.846C92.1268 68.0607 91.6228 68.168 91.0815 68.168C90.5962 68.168 90.1435 68.084 89.7235 67.916C89.3128 67.7387 88.9582 67.496 88.6595 67.188C88.3608 66.88 88.1228 66.516 87.9455 66.096C87.7775 65.676 87.6935 65.2187 87.6935 64.724C87.6935 64.2293 87.7775 63.772 87.9455 63.352C88.1135 62.932 88.3468 62.568 88.6455 62.26C88.9442 61.952 89.2942 61.714 89.6955 61.546C90.0968 61.3687 90.5308 61.28 90.9975 61.28C91.4922 61.28 91.9355 61.3687 92.3275 61.546C92.7195 61.7233 93.0462 61.9613 93.3075 62.26C93.5782 62.5493 93.7835 62.8947 93.9235 63.296C94.0635 63.688 94.1335 64.108 94.1335 64.556V64.976H88.6735Z" fill="black"/>
<circle cx="72" cy="95.5" r="11.5" fill="#0F62AB" stroke="#3F3F3F" stroke-width="2"/>
<circle cx="72" cy="95.5" r="6.25" fill="white"/>
<circle cx="72" cy="130.5" r="11.5" fill="white" stroke="#3F3F3F" stroke-width="2"/>
<path d="M115.709 28.7691H117.51V35.7956C117.51 36.2098 117.857 36.5485 118.282 36.5485H123.556C123.981 36.5485 124.328 36.2098 124.328 35.7956V30.6511H127.544V35.7956C127.544 36.2098 127.892 36.5485 128.316 36.5485H133.333C133.758 36.5485 134.105 36.2098 134.105 35.7956V28.7691H136.292C136.601 28.7691 136.884 28.5807 137 28.3048C137.115 28.0287 137.051 27.7025 136.833 27.4892L126.773 17.5389C126.477 17.2502 125.988 17.2377 125.692 17.5264L115.182 27.4766C114.95 27.69 114.886 28.0164 115.002 28.3048C115.117 28.5933 115.4 28.7691 115.709 28.7691ZM126.206 19.1324L134.44 27.2633H133.333C132.909 27.2633 132.562 27.6022 132.562 28.0162V35.0428H129.088V29.8982C129.088 29.4842 128.741 29.1453 128.316 29.1453H123.556C123.132 29.1453 122.784 29.4842 122.784 29.8982V35.0428H119.054V28.0162C119.054 27.602 118.706 27.2633 118.282 27.2633H117.613L126.206 19.1324Z" fill="#3F3F3F"/>
<circle cx="126" cy="29" r="19.75" stroke="black" stroke-width="0.5"/>
<path d="M105.239 62.47H107.031C107.479 62.47 107.857 62.4233 108.165 62.33C108.482 62.2367 108.734 62.1153 108.921 61.966C109.107 61.8073 109.243 61.6253 109.327 61.42C109.411 61.2053 109.453 60.9767 109.453 60.734C109.453 60.5007 109.411 60.2813 109.327 60.076C109.243 59.8613 109.107 59.6747 108.921 59.516C108.734 59.3573 108.482 59.236 108.165 59.152C107.857 59.0587 107.479 59.012 107.031 59.012H105.239V62.47ZM105.239 68H104.231V58.088H107.283C108.291 58.088 109.084 58.3073 109.663 58.746C110.251 59.1847 110.545 59.8473 110.545 60.734C110.545 61.4247 110.325 62.008 109.887 62.484C109.457 62.9507 108.832 63.2213 108.011 63.296L110.867 68H109.635L106.919 63.394H105.239V68ZM116.79 64.22C116.79 63.5947 116.603 63.0907 116.23 62.708C115.856 62.316 115.334 62.12 114.662 62.12C114.363 62.12 114.074 62.1807 113.794 62.302C113.514 62.414 113.266 62.568 113.052 62.764C112.846 62.96 112.678 63.184 112.548 63.436C112.426 63.688 112.366 63.9493 112.366 64.22H116.79ZM112.338 64.976C112.366 65.3027 112.445 65.6107 112.576 65.9C112.706 66.1893 112.879 66.4413 113.094 66.656C113.308 66.8613 113.556 67.0247 113.836 67.146C114.116 67.2673 114.419 67.328 114.746 67.328C115.24 67.328 115.665 67.216 116.02 66.992C116.384 66.7587 116.659 66.4927 116.846 66.194L117.56 66.782C117.168 67.2767 116.734 67.6313 116.258 67.846C115.791 68.0607 115.287 68.168 114.746 68.168C114.26 68.168 113.808 68.084 113.388 67.916C112.977 67.7387 112.622 67.496 112.324 67.188C112.025 66.88 111.787 66.516 111.61 66.096C111.442 65.676 111.358 65.2187 111.358 64.724C111.358 64.2293 111.442 63.772 111.61 63.352C111.778 62.932 112.011 62.568 112.31 62.26C112.608 61.952 112.958 61.714 113.36 61.546C113.761 61.3687 114.195 61.28 114.662 61.28C115.156 61.28 115.6 61.3687 115.992 61.546C116.384 61.7233 116.71 61.9613 116.972 62.26C117.242 62.5493 117.448 62.8947 117.588 63.296C117.728 63.688 117.798 64.108 117.798 64.556V64.976H112.338ZM118.973 62.904C118.973 62.6613 118.964 62.4187 118.945 62.176C118.936 61.9333 118.922 61.6907 118.903 61.448H119.897V62.442H119.925C120.149 62.0593 120.457 61.77 120.849 61.574C121.25 61.378 121.647 61.28 122.039 61.28C122.216 61.28 122.403 61.2987 122.599 61.336C122.804 61.3733 123 61.4433 123.187 61.546C123.374 61.6393 123.546 61.7747 123.705 61.952C123.873 62.1293 124.013 62.358 124.125 62.638C124.312 62.218 124.606 61.8867 125.007 61.644C125.418 61.4013 125.842 61.28 126.281 61.28C127.121 61.28 127.742 61.504 128.143 61.952C128.544 62.3907 128.745 63.0207 128.745 63.842V68H127.821V64.178C127.821 63.5153 127.704 63.0067 127.471 62.652C127.238 62.2973 126.804 62.12 126.169 62.12C125.824 62.12 125.534 62.19 125.301 62.33C125.068 62.4607 124.876 62.638 124.727 62.862C124.587 63.086 124.484 63.3427 124.419 63.632C124.354 63.912 124.321 64.206 124.321 64.514V68H123.397V64.178C123.397 63.5153 123.28 63.0067 123.047 62.652C122.814 62.2973 122.38 62.12 121.745 62.12C121.689 62.12 121.558 62.1387 121.353 62.176C121.157 62.2133 120.952 62.316 120.737 62.484C120.522 62.652 120.326 62.904 120.149 63.24C119.981 63.576 119.897 64.0427 119.897 64.64V68H118.973V62.904ZM136.009 64.724C136.009 64.36 135.948 64.0193 135.827 63.702C135.715 63.3847 135.551 63.1093 135.337 62.876C135.122 62.6427 134.861 62.4607 134.553 62.33C134.254 62.19 133.913 62.12 133.531 62.12C133.148 62.12 132.803 62.19 132.495 62.33C132.196 62.4607 131.939 62.6427 131.725 62.876C131.519 63.1093 131.356 63.3847 131.235 63.702C131.123 64.0193 131.067 64.36 131.067 64.724C131.067 65.088 131.123 65.4287 131.235 65.746C131.356 66.0633 131.519 66.3387 131.725 66.572C131.939 66.8053 132.196 66.992 132.495 67.132C132.803 67.2627 133.148 67.328 133.531 67.328C133.913 67.328 134.254 67.2627 134.553 67.132C134.861 66.992 135.122 66.8053 135.337 66.572C135.551 66.3387 135.715 66.0633 135.827 65.746C135.948 65.4287 136.009 65.088 136.009 64.724ZM137.017 64.724C137.017 65.2187 136.928 65.676 136.751 66.096C136.583 66.516 136.345 66.88 136.037 67.188C135.729 67.496 135.36 67.7387 134.931 67.916C134.511 68.084 134.044 68.168 133.531 68.168C133.027 68.168 132.56 68.084 132.131 67.916C131.711 67.7387 131.347 67.496 131.039 67.188C130.731 66.88 130.488 66.516 130.311 66.096C130.143 65.676 130.059 65.2187 130.059 64.724C130.059 64.2293 130.143 63.772 130.311 63.352C130.488 62.932 130.731 62.568 131.039 62.26C131.347 61.952 131.711 61.714 132.131 61.546C132.56 61.3687 133.027 61.28 133.531 61.28C134.044 61.28 134.511 61.3687 134.931 61.546C135.36 61.714 135.729 61.952 136.037 62.26C136.345 62.568 136.583 62.932 136.751 63.352C136.928 63.772 137.017 64.2293 137.017 64.724ZM141.582 62.288H139.692V66.152C139.692 66.3947 139.715 66.5953 139.762 66.754C139.808 66.9033 139.874 67.02 139.958 67.104C140.042 67.188 140.14 67.2487 140.252 67.286C140.373 67.314 140.504 67.328 140.644 67.328C140.802 67.328 140.966 67.3047 141.134 67.258C141.302 67.2113 141.456 67.1507 141.596 67.076L141.638 67.93C141.292 68.0887 140.877 68.168 140.392 68.168C140.214 68.168 140.028 68.1447 139.832 68.098C139.645 68.0513 139.472 67.9627 139.314 67.832C139.155 67.7013 139.024 67.524 138.922 67.3C138.819 67.076 138.768 66.782 138.768 66.418V62.288H137.382V61.448H138.768V59.6H139.692V61.448H141.582V62.288ZM147.438 64.22C147.438 63.5947 147.251 63.0907 146.878 62.708C146.505 62.316 145.982 62.12 145.31 62.12C145.011 62.12 144.722 62.1807 144.442 62.302C144.162 62.414 143.915 62.568 143.7 62.764C143.495 62.96 143.327 63.184 143.196 63.436C143.075 63.688 143.014 63.9493 143.014 64.22H147.438ZM142.986 64.976C143.014 65.3027 143.093 65.6107 143.224 65.9C143.355 66.1893 143.527 66.4413 143.742 66.656C143.957 66.8613 144.204 67.0247 144.484 67.146C144.764 67.2673 145.067 67.328 145.394 67.328C145.889 67.328 146.313 67.216 146.668 66.992C147.032 66.7587 147.307 66.4927 147.494 66.194L148.208 66.782C147.816 67.2767 147.382 67.6313 146.906 67.846C146.439 68.0607 145.935 68.168 145.394 68.168C144.909 68.168 144.456 68.084 144.036 67.916C143.625 67.7387 143.271 67.496 142.972 67.188C142.673 66.88 142.435 66.516 142.258 66.096C142.09 65.676 142.006 65.2187 142.006 64.724C142.006 64.2293 142.09 63.772 142.258 63.352C142.426 62.932 142.659 62.568 142.958 62.26C143.257 61.952 143.607 61.714 144.008 61.546C144.409 61.3687 144.843 61.28 145.31 61.28C145.805 61.28 146.248 61.3687 146.64 61.546C147.032 61.7233 147.359 61.9613 147.62 62.26C147.891 62.5493 148.096 62.8947 148.236 63.296C148.376 63.688 148.446 64.108 148.446 64.556V64.976H142.986Z" fill="black"/>
<circle cx="126" cy="95.5" r="11.5" fill="white" stroke="#3F3F3F" stroke-width="2"/>
<circle cx="126" cy="130.5" r="11.5" fill="#0F62AB" stroke="#3F3F3F" stroke-width="2"/>
<circle cx="126" cy="130.5" r="6.25" fill="white"/>
<circle cx="180" cy="30.3334" r="19.5" stroke="black"/>
<path d="M189.167 26.375H183.958V21.1667C183.958 20.7799 183.805 20.409 183.531 20.1355C183.258 19.862 182.887 19.7084 182.5 19.7084H177.5C177.113 19.7084 176.742 19.862 176.469 20.1355C176.195 20.409 176.042 20.7799 176.042 21.1667V26.375H170.833C170.447 26.375 170.076 26.5287 169.802 26.8022C169.529 27.0757 169.375 27.4466 169.375 27.8334V32.8334C169.375 33.2201 169.529 33.5911 169.802 33.8646C170.076 34.1381 170.447 34.2917 170.833 34.2917H176.042V39.5C176.042 39.8868 176.195 40.2577 176.469 40.5312C176.742 40.8047 177.113 40.9584 177.5 40.9584H182.5C182.887 40.9584 183.258 40.8047 183.531 40.5312C183.805 40.2577 183.958 39.8868 183.958 39.5V34.2917H189.167C189.553 34.2917 189.924 34.1381 190.198 33.8646C190.471 33.5911 190.625 33.2201 190.625 32.8334V27.8334C190.625 27.4466 190.471 27.0757 190.198 26.8022C189.924 26.5287 189.553 26.375 189.167 26.375ZM189.375 32.8334C189.375 32.8886 189.353 32.9416 189.314 32.9807C189.275 33.0198 189.222 33.0417 189.167 33.0417H183.333C183.168 33.0417 183.009 33.1076 182.891 33.2248C182.774 33.342 182.708 33.5009 182.708 33.6667V39.5C182.708 39.5553 182.686 39.6083 182.647 39.6474C182.608 39.6864 182.555 39.7084 182.5 39.7084H177.5C177.445 39.7084 177.392 39.6864 177.353 39.6474C177.314 39.6083 177.292 39.5553 177.292 39.5V33.6667C177.292 33.5009 177.226 33.342 177.109 33.2248C176.991 33.1076 176.832 33.0417 176.667 33.0417H170.833C170.778 33.0417 170.725 33.0198 170.686 32.9807C170.647 32.9416 170.625 32.8886 170.625 32.8334V27.8334C170.625 27.7781 170.647 27.7251 170.686 27.6861C170.725 27.647 170.778 27.625 170.833 27.625H176.667C176.832 27.625 176.991 27.5592 177.109 27.442C177.226 27.3248 177.292 27.1658 177.292 27V21.1667C177.292 21.1115 177.314 21.0585 177.353 21.0194C177.392 20.9803 177.445 20.9584 177.5 20.9584H182.5C182.555 20.9584 182.608 20.9803 182.647 21.0194C182.686 21.0585 182.708 21.1115 182.708 21.1667V27C182.708 27.1658 182.774 27.3248 182.891 27.442C183.009 27.5592 183.168 27.625 183.333 27.625H189.167C189.222 27.625 189.275 27.647 189.314 27.6861C189.353 27.7251 189.375 27.7781 189.375 27.8334V32.8334Z" fill="#3F3F3F"/>
<path d="M161.719 59.726C161.28 59.082 160.641 58.76 159.801 58.76C159.539 58.76 159.283 58.7973 159.031 58.872C158.779 58.9373 158.55 59.0447 158.345 59.194C158.149 59.334 157.99 59.5207 157.869 59.754C157.747 59.978 157.687 60.244 157.687 60.552C157.687 61 157.813 61.35 158.065 61.602C158.317 61.8447 158.629 62.0453 159.003 62.204C159.376 62.3627 159.782 62.5073 160.221 62.638C160.669 62.7593 161.079 62.9273 161.453 63.142C161.826 63.3473 162.139 63.6227 162.391 63.968C162.643 64.3133 162.769 64.7847 162.769 65.382C162.769 65.83 162.671 66.236 162.475 66.6C162.288 66.9547 162.036 67.2533 161.719 67.496C161.411 67.7387 161.061 67.9253 160.669 68.056C160.286 68.1867 159.899 68.252 159.507 68.252C158.9 68.252 158.321 68.14 157.771 67.916C157.229 67.6827 156.767 67.3047 156.385 66.782L157.295 66.124C157.509 66.488 157.808 66.782 158.191 67.006C158.573 67.2207 159.026 67.328 159.549 67.328C159.801 67.328 160.053 67.2907 160.305 67.216C160.557 67.132 160.781 67.0153 160.977 66.866C161.182 66.7073 161.35 66.516 161.481 66.292C161.611 66.068 161.677 65.8113 161.677 65.522C161.677 65.1767 161.602 64.892 161.453 64.668C161.313 64.4347 161.121 64.2433 160.879 64.094C160.645 63.9353 160.375 63.8047 160.067 63.702C159.768 63.5993 159.455 63.4967 159.129 63.394C158.811 63.2913 158.499 63.1747 158.191 63.044C157.892 62.9133 157.621 62.75 157.379 62.554C157.145 62.3487 156.954 62.0967 156.805 61.798C156.665 61.49 156.595 61.1073 156.595 60.65C156.595 60.174 156.683 59.7587 156.861 59.404C157.047 59.0493 157.29 58.7553 157.589 58.522C157.897 58.2887 158.242 58.116 158.625 58.004C159.007 57.892 159.399 57.836 159.801 57.836C160.361 57.836 160.869 57.9247 161.327 58.102C161.784 58.2793 162.209 58.592 162.601 59.04L161.719 59.726ZM165.316 58.928C165.316 59.124 165.246 59.2873 165.106 59.418C164.966 59.5393 164.812 59.6 164.644 59.6C164.476 59.6 164.322 59.5393 164.182 59.418C164.042 59.2873 163.972 59.124 163.972 58.928C163.972 58.732 164.042 58.5733 164.182 58.452C164.322 58.3213 164.476 58.256 164.644 58.256C164.812 58.256 164.966 58.3213 165.106 58.452C165.246 58.5733 165.316 58.732 165.316 58.928ZM165.106 68H164.182V61.448H165.106V68ZM171.609 62.988C171.45 62.7453 171.226 62.54 170.937 62.372C170.657 62.204 170.335 62.12 169.971 62.12C169.588 62.1107 169.243 62.1713 168.935 62.302C168.636 62.4327 168.38 62.6147 168.165 62.848C167.95 63.0813 167.787 63.3613 167.675 63.688C167.563 64.0053 167.507 64.3507 167.507 64.724C167.507 65.0973 167.563 65.4473 167.675 65.774C167.787 66.0913 167.95 66.3667 168.165 66.6C168.38 66.8333 168.636 67.0153 168.935 67.146C169.243 67.2767 169.588 67.3373 169.971 67.328C170.335 67.328 170.657 67.244 170.937 67.076C171.226 66.908 171.45 66.7027 171.609 66.46L172.365 67.034C172.038 67.4167 171.67 67.7013 171.259 67.888C170.848 68.0653 170.419 68.1587 169.971 68.168C169.439 68.1773 168.958 68.098 168.529 67.93C168.1 67.7527 167.731 67.51 167.423 67.202C167.124 66.894 166.896 66.53 166.737 66.11C166.578 65.6807 166.499 65.2187 166.499 64.724C166.499 64.2293 166.578 63.772 166.737 63.352C166.896 62.9227 167.124 62.554 167.423 62.246C167.731 61.938 168.1 61.7 168.529 61.532C168.958 61.3547 169.439 61.2707 169.971 61.28C170.419 61.2893 170.848 61.3873 171.259 61.574C171.67 61.7513 172.038 62.0313 172.365 62.414L171.609 62.988ZM174.013 64.402L177.107 61.448H178.493L175.231 64.444L178.843 68H177.415L174.013 64.556V68H173.089V57.416H174.013V64.402ZM180.225 61.448C180.244 61.6253 180.253 61.8027 180.253 61.98C180.262 62.148 180.267 62.3207 180.267 62.498H180.295C180.398 62.3207 180.528 62.1573 180.687 62.008C180.846 61.8587 181.023 61.7327 181.219 61.63C181.415 61.518 181.62 61.434 181.835 61.378C182.059 61.3127 182.278 61.28 182.493 61.28C183.333 61.28 183.954 61.504 184.355 61.952C184.756 62.3907 184.957 63.0207 184.957 63.842V68H184.033V64.374C184.033 63.646 183.907 63.0907 183.655 62.708C183.403 62.316 182.936 62.12 182.255 62.12C182.208 62.12 182.078 62.1387 181.863 62.176C181.648 62.2133 181.42 62.316 181.177 62.484C180.944 62.652 180.734 62.904 180.547 63.24C180.36 63.576 180.267 64.0427 180.267 64.64V68H179.343V62.89C179.343 62.7127 179.334 62.4887 179.315 62.218C179.306 61.9473 179.292 61.6907 179.273 61.448H180.225ZM191.718 64.22C191.718 63.5947 191.532 63.0907 191.158 62.708C190.785 62.316 190.262 62.12 189.59 62.12C189.292 62.12 189.002 62.1807 188.722 62.302C188.442 62.414 188.195 62.568 187.98 62.764C187.775 62.96 187.607 63.184 187.476 63.436C187.355 63.688 187.294 63.9493 187.294 64.22H191.718ZM187.266 64.976C187.294 65.3027 187.374 65.6107 187.504 65.9C187.635 66.1893 187.808 66.4413 188.022 66.656C188.237 66.8613 188.484 67.0247 188.764 67.146C189.044 67.2673 189.348 67.328 189.674 67.328C190.169 67.328 190.594 67.216 190.948 66.992C191.312 66.7587 191.588 66.4927 191.774 66.194L192.488 66.782C192.096 67.2767 191.662 67.6313 191.186 67.846C190.72 68.0607 190.216 68.168 189.674 68.168C189.189 68.168 188.736 68.084 188.316 67.916C187.906 67.7387 187.551 67.496 187.252 67.188C186.954 66.88 186.716 66.516 186.538 66.096C186.37 65.676 186.286 65.2187 186.286 64.724C186.286 64.2293 186.37 63.772 186.538 63.352C186.706 62.932 186.94 62.568 187.238 62.26C187.537 61.952 187.887 61.714 188.288 61.546C188.69 61.3687 189.124 61.28 189.59 61.28C190.085 61.28 190.528 61.3687 190.92 61.546C191.312 61.7233 191.639 61.9613 191.9 62.26C192.171 62.5493 192.376 62.8947 192.516 63.296C192.656 63.688 192.726 64.108 192.726 64.556V64.976H187.266ZM197.374 63.002C197.234 62.7313 197.047 62.5167 196.814 62.358C196.58 62.1993 196.296 62.12 195.96 62.12C195.801 62.12 195.638 62.1387 195.47 62.176C195.311 62.2133 195.166 62.274 195.036 62.358C194.905 62.4327 194.798 62.5307 194.714 62.652C194.639 62.7733 194.602 62.9227 194.602 63.1C194.602 63.408 194.709 63.632 194.924 63.772C195.138 63.912 195.46 64.0333 195.89 64.136L196.828 64.36C197.285 64.4627 197.663 64.6727 197.962 64.99C198.27 65.298 198.424 65.6853 198.424 66.152C198.424 66.5067 198.349 66.8147 198.2 67.076C198.06 67.328 197.868 67.538 197.626 67.706C197.392 67.8647 197.122 67.9813 196.814 68.056C196.506 68.1307 196.193 68.168 195.876 68.168C195.372 68.168 194.9 68.0747 194.462 67.888C194.032 67.692 193.664 67.3607 193.356 66.894L194.154 66.348C194.34 66.6467 194.574 66.8847 194.854 67.062C195.143 67.2393 195.484 67.328 195.876 67.328C196.062 67.328 196.249 67.3093 196.436 67.272C196.622 67.2253 196.786 67.16 196.926 67.076C197.075 66.9827 197.192 66.866 197.276 66.726C197.369 66.586 197.416 66.4227 197.416 66.236C197.416 65.9093 197.294 65.676 197.052 65.536C196.809 65.3867 196.515 65.27 196.17 65.186L195.274 64.976C195.162 64.948 195.008 64.9013 194.812 64.836C194.625 64.7707 194.438 64.6727 194.252 64.542C194.074 64.4113 193.92 64.2433 193.79 64.038C193.659 63.8233 193.594 63.562 193.594 63.254C193.594 62.918 193.659 62.624 193.79 62.372C193.93 62.12 194.112 61.9147 194.336 61.756C194.569 61.5973 194.83 61.4807 195.12 61.406C195.409 61.322 195.708 61.28 196.016 61.28C196.473 61.28 196.898 61.3687 197.29 61.546C197.682 61.7233 197.985 62.0267 198.2 62.456L197.374 63.002ZM202.834 63.002C202.694 62.7313 202.508 62.5167 202.274 62.358C202.041 62.1993 201.756 62.12 201.42 62.12C201.262 62.12 201.098 62.1387 200.93 62.176C200.772 62.2133 200.627 62.274 200.496 62.358C200.366 62.4327 200.258 62.5307 200.174 62.652C200.1 62.7733 200.062 62.9227 200.062 63.1C200.062 63.408 200.17 63.632 200.384 63.772C200.599 63.912 200.921 64.0333 201.35 64.136L202.288 64.36C202.746 64.4627 203.124 64.6727 203.422 64.99C203.73 65.298 203.884 65.6853 203.884 66.152C203.884 66.5067 203.81 66.8147 203.66 67.076C203.52 67.328 203.329 67.538 203.086 67.706C202.853 67.8647 202.582 67.9813 202.274 68.056C201.966 68.1307 201.654 68.168 201.336 68.168C200.832 68.168 200.361 68.0747 199.922 67.888C199.493 67.692 199.124 67.3607 198.816 66.894L199.614 66.348C199.801 66.6467 200.034 66.8847 200.314 67.062C200.604 67.2393 200.944 67.328 201.336 67.328C201.523 67.328 201.71 67.3093 201.896 67.272C202.083 67.2253 202.246 67.16 202.386 67.076C202.536 66.9827 202.652 66.866 202.736 66.726C202.83 66.586 202.876 66.4227 202.876 66.236C202.876 65.9093 202.755 65.676 202.512 65.536C202.27 65.3867 201.976 65.27 201.63 65.186L200.734 64.976C200.622 64.948 200.468 64.9013 200.272 64.836C200.086 64.7707 199.899 64.6727 199.712 64.542C199.535 64.4113 199.381 64.2433 199.25 64.038C199.12 63.8233 199.054 63.562 199.054 63.254C199.054 62.918 199.12 62.624 199.25 62.372C199.39 62.12 199.572 61.9147 199.796 61.756C200.03 61.5973 200.291 61.4807 200.58 61.406C200.87 61.322 201.168 61.28 201.476 61.28C201.934 61.28 202.358 61.3687 202.75 61.546C203.142 61.7233 203.446 62.0267 203.66 62.456L202.834 63.002Z" fill="black"/>
<circle cx="180" cy="95.5" r="11.5" fill="white" stroke="#3F3F3F" stroke-width="2"/>
<circle cx="180" cy="130.5" r="11.5" fill="white" stroke="#3F3F3F" stroke-width="2"/>
<circle cx="233" cy="29" r="19.5" stroke="black"/>
<path d="M235.078 37.7013L234.82 38.13C234.519 37.9493 234.335 37.6238 234.335 37.2725V31.5016C234.335 30.834 234.977 30.3539 235.617 30.5423L244.724 33.2207V31.7305L234.828 25.9093C234.522 25.7297 234.335 25.4018 234.335 25.0474V18.6112C234.335 17.8729 233.74 17.2778 233.002 17.2778C232.263 17.2778 231.668 17.8729 231.668 18.6112V25.0474C231.668 25.4018 231.481 25.7297 231.175 25.9094L221.279 31.7305M235.078 37.7013L221.279 31.7305M235.078 37.7013L234.82 38.13L237.39 39.672L237.39 40.5819L233.244 39.5453C233.085 39.5055 232.918 39.5055 232.759 39.5453L228.613 40.5819V39.672L231.183 38.13C231.484 37.9493 231.668 37.6238 231.668 37.2725V31.5016C231.668 30.834 231.027 30.3539 230.386 30.5423L221.279 33.2207L221.279 31.7305M235.078 37.7013L221.026 31.2995L221.279 31.7305" stroke="black"/>
<path d="M211.993 58.088H213.001V62.386H218.405V58.088H219.413V68H218.405V63.31H213.001V68H211.993V58.088ZM226.875 64.724C226.875 64.36 226.814 64.0193 226.693 63.702C226.581 63.3847 226.418 63.1093 226.203 62.876C225.988 62.6427 225.727 62.4607 225.419 62.33C225.12 62.19 224.78 62.12 224.397 62.12C224.014 62.12 223.669 62.19 223.361 62.33C223.062 62.4607 222.806 62.6427 222.591 62.876C222.386 63.1093 222.222 63.3847 222.101 63.702C221.989 64.0193 221.933 64.36 221.933 64.724C221.933 65.088 221.989 65.4287 222.101 65.746C222.222 66.0633 222.386 66.3387 222.591 66.572C222.806 66.8053 223.062 66.992 223.361 67.132C223.669 67.2627 224.014 67.328 224.397 67.328C224.78 67.328 225.12 67.2627 225.419 67.132C225.727 66.992 225.988 66.8053 226.203 66.572C226.418 66.3387 226.581 66.0633 226.693 65.746C226.814 65.4287 226.875 65.088 226.875 64.724ZM227.883 64.724C227.883 65.2187 227.794 65.676 227.617 66.096C227.449 66.516 227.211 66.88 226.903 67.188C226.595 67.496 226.226 67.7387 225.797 67.916C225.377 68.084 224.91 68.168 224.397 68.168C223.893 68.168 223.426 68.084 222.997 67.916C222.577 67.7387 222.213 67.496 221.905 67.188C221.597 66.88 221.354 66.516 221.177 66.096C221.009 65.676 220.925 65.2187 220.925 64.724C220.925 64.2293 221.009 63.772 221.177 63.352C221.354 62.932 221.597 62.568 221.905 62.26C222.213 61.952 222.577 61.714 222.997 61.546C223.426 61.3687 223.893 61.28 224.397 61.28C224.91 61.28 225.377 61.3687 225.797 61.546C226.226 61.714 226.595 61.952 226.903 62.26C227.211 62.568 227.449 62.932 227.617 63.352C227.794 63.772 227.883 64.2293 227.883 64.724ZM230.194 68H229.27V57.416H230.194V68ZM233.267 58.928C233.267 59.124 233.197 59.2873 233.057 59.418C232.917 59.5393 232.763 59.6 232.595 59.6C232.427 59.6 232.273 59.5393 232.133 59.418C231.993 59.2873 231.923 59.124 231.923 58.928C231.923 58.732 231.993 58.5733 232.133 58.452C232.273 58.3213 232.427 58.256 232.595 58.256C232.763 58.256 232.917 58.3213 233.057 58.452C233.197 58.5733 233.267 58.732 233.267 58.928ZM233.057 68H232.133V61.448H233.057V68ZM235.346 64.724C235.346 65.088 235.402 65.4287 235.514 65.746C235.636 66.0633 235.804 66.3387 236.018 66.572C236.233 66.8053 236.49 66.992 236.788 67.132C237.096 67.2627 237.442 67.328 237.824 67.328C238.198 67.328 238.543 67.2627 238.86 67.132C239.187 66.992 239.467 66.8053 239.7 66.572C239.934 66.3387 240.116 66.0633 240.246 65.746C240.377 65.4287 240.442 65.088 240.442 64.724C240.442 64.36 240.377 64.0193 240.246 63.702C240.116 63.3847 239.934 63.1093 239.7 62.876C239.467 62.6427 239.187 62.4607 238.86 62.33C238.543 62.19 238.198 62.12 237.824 62.12C237.442 62.12 237.096 62.19 236.788 62.33C236.49 62.4607 236.233 62.6427 236.018 62.876C235.804 63.1093 235.636 63.3847 235.514 63.702C235.402 64.0193 235.346 64.36 235.346 64.724ZM241.324 68H240.4V66.908H240.372C240.223 67.132 240.046 67.3233 239.84 67.482C239.635 67.6407 239.42 67.7713 239.196 67.874C238.972 67.9767 238.739 68.0513 238.496 68.098C238.263 68.1447 238.039 68.168 237.824 68.168C237.311 68.168 236.84 68.084 236.41 67.916C235.99 67.7387 235.626 67.496 235.318 67.188C235.01 66.88 234.768 66.516 234.59 66.096C234.422 65.676 234.338 65.2187 234.338 64.724C234.338 64.2293 234.422 63.772 234.59 63.352C234.768 62.932 235.01 62.568 235.318 62.26C235.626 61.952 235.99 61.714 236.41 61.546C236.84 61.3687 237.311 61.28 237.824 61.28C238.039 61.28 238.263 61.3033 238.496 61.35C238.739 61.3967 238.972 61.4713 239.196 61.574C239.42 61.6767 239.635 61.8073 239.84 61.966C240.046 62.1247 240.223 62.316 240.372 62.54H240.4V57.416H241.324V68ZM246.569 64.738C246.336 64.738 246.042 64.752 245.687 64.78C245.342 64.7987 245.006 64.8547 244.679 64.948C244.362 65.032 244.086 65.1673 243.853 65.354C243.629 65.5407 243.517 65.7973 243.517 66.124C243.517 66.3387 243.559 66.5253 243.643 66.684C243.736 66.8333 243.858 66.9593 244.007 67.062C244.156 67.1553 244.32 67.2253 244.497 67.272C244.684 67.3093 244.87 67.328 245.057 67.328C245.393 67.328 245.682 67.272 245.925 67.16C246.177 67.048 246.387 66.8987 246.555 66.712C246.723 66.516 246.844 66.292 246.919 66.04C247.003 65.7787 247.045 65.5033 247.045 65.214V64.738H246.569ZM247.045 63.982V63.814C247.045 62.6847 246.485 62.12 245.365 62.12C244.6 62.12 243.932 62.3767 243.363 62.89L242.803 62.232C243.419 61.5973 244.343 61.28 245.575 61.28C245.892 61.28 246.196 61.3267 246.485 61.42C246.784 61.5133 247.04 61.658 247.255 61.854C247.47 62.0407 247.642 62.2787 247.773 62.568C247.904 62.8573 247.969 63.2027 247.969 63.604V66.53C247.969 66.782 247.978 67.048 247.997 67.328C248.025 67.5987 248.053 67.8227 248.081 68H247.185C247.157 67.8413 247.134 67.6687 247.115 67.482C247.106 67.2953 247.101 67.1133 247.101 66.936H247.073C246.802 67.3747 246.48 67.692 246.107 67.888C245.743 68.0747 245.295 68.168 244.763 68.168C244.474 68.168 244.194 68.126 243.923 68.042C243.652 67.9673 243.41 67.8507 243.195 67.692C242.99 67.524 242.822 67.3233 242.691 67.09C242.57 66.8473 242.509 66.5673 242.509 66.25C242.509 65.718 242.644 65.3027 242.915 65.004C243.195 64.696 243.54 64.4673 243.951 64.318C244.371 64.1687 244.814 64.0753 245.281 64.038C245.757 64.0007 246.191 63.982 246.583 63.982H247.045ZM252.041 66.866L254.043 61.448H255.163L251.887 69.708C251.691 70.212 251.439 70.6133 251.131 70.912C250.832 71.2107 250.398 71.36 249.829 71.36C249.689 71.36 249.544 71.3553 249.395 71.346C249.255 71.3367 249.115 71.3087 248.975 71.262L249.073 70.366C249.269 70.4687 249.502 70.52 249.773 70.52C250.099 70.52 250.356 70.4173 250.543 70.212C250.729 70.0067 250.893 69.7173 251.033 69.344L251.509 68.084L248.821 61.448H249.983L252.041 66.866Z" fill="black"/>
<circle cx="233" cy="95.5" r="11.5" fill="white" stroke="#3F3F3F" stroke-width="2"/>
<circle cx="233" cy="130.5" r="11.5" fill="white" stroke="#3F3F3F" stroke-width="2"/>
</g>
<defs>
<clipPath id="clip0_6188_36282">
<rect width="265" height="151" rx="10" fill="white"/>
</clipPath>
</defs>
</svg>
